<svg width="60" height="59" viewBox="0 0 60 59" fill="none" xmlns="http://www.w3.org/2000/svg">
<rect x="0.5" y="0.5" width="59" height="58" rx="3.5" fill="#3F3E41" stroke="#939393"/>
<path d="M30 18.3333C36.433 18.3333 41.6667 23.567 41.6667 30C41.6667 36.433 36.433 41.6667 30 41.6667C23.567 41.6667 18.3333 36.433 18.3333 30C18.3333 23.567 23.567 18.3333 30 18.3333ZM30 16C22.2685 16 16 22.2685 16 30C16 37.7315 22.2685 44 30 44C37.7315 44 44 37.7315 44 30C44 22.2685 37.7315 16 30 16ZM30 23C26.1348 23 23 26.1337 23 30C23 33.0928 25.0055 35.7167 27.788 36.6418C28.138 36.7072 28.25 36.4902 28.25 36.3047V35.0015C26.3028 35.425 25.8968 34.1767 25.8968 34.1767C25.5795 33.3682 25.1198 33.1523 25.1198 33.1523C24.4852 32.7172 25.1677 32.7265 25.1677 32.7265C25.8712 32.7755 26.241 33.4487 26.241 33.4487C26.8652 34.5185 27.8778 34.2093 28.278 34.0308C28.341 33.5782 28.5218 33.2702 28.7225 33.0952C27.1673 32.9178 25.534 32.317 25.534 29.636C25.534 28.8718 25.807 28.2477 26.255 27.7577C26.1827 27.5792 25.9423 26.8663 26.3227 25.9027C26.3227 25.9027 26.9107 25.7148 28.2477 26.6202C28.8065 26.465 29.405 26.388 30 26.3845C30.595 26.3868 31.1935 26.465 31.7535 26.6202C33.0905 25.7148 33.6762 25.9027 33.6762 25.9027C34.0577 26.8663 33.8173 27.5792 33.7462 27.7553C34.1953 28.2453 34.466 28.8695 34.466 29.6337C34.466 32.3228 32.828 32.9143 31.2693 33.087C31.5213 33.304 31.75 33.7298 31.75 34.3832V36.3035C31.75 36.4902 31.862 36.7083 32.2167 36.6395C34.9968 35.7143 37 33.0917 37 30C37 26.1337 33.8652 23 30 23V23Z" fill="#FEFEFE"/>
</svg>
