<svg width="20" height="21" viewBox="0 0 20 21" fill="none" xmlns="http://www.w3.org/2000/svg">
<path d="M13.9231 20V16.503C13.9577 16.0722 13.8982 15.639 13.7486 15.2324C13.599 14.8257 13.3627 14.4549 13.0554 14.1446C15.9538 13.8284 19 12.7531 19 7.81935C18.9998 6.55776 18.504 5.34454 17.6154 4.43082C18.0362 3.32706 18.0064 2.10705 17.5323 1.02421C17.5323 1.02421 16.4431 0.707947 13.9231 2.36155C11.8074 1.80025 9.57722 1.80025 7.46154 2.36155C4.94154 0.707947 3.85231 1.02421 3.85231 1.02421C3.37819 2.10705 3.34844 3.32706 3.76923 4.43082C2.87396 5.35132 2.37771 6.5755 2.38462 7.84646C2.38462 12.744 5.43077 13.8193 8.32923 14.1717C8.02554 14.4789 7.79132 14.8453 7.64182 15.2469C7.49233 15.6486 7.4309 16.0766 7.46154 16.503V20M7.46154 17.2892C2.84615 18.6446 2.84615 15.0302 1 14.5783L7.46154 17.2892Z" stroke="white" stroke-width="2" stroke-linecap="round" stroke-linejoin="round"/>
</svg>
