<svg width="18" height="18" viewBox="0 0 18 18" fill="none" xmlns="http://www.w3.org/2000/svg">
<path d="M17 8H12.2L10.6 13H7.4L5.8 8H1" stroke="white" stroke-width="2" stroke-linecap="round" stroke-linejoin="round"/>
<path d="M3.76 2.11L1 9V15C1 15.5304 1.16857 16.0391 1.46863 16.4142C1.76869 16.7893 2.17565 17 2.6 17H15.4C15.8243 17 16.2313 16.7893 16.5314 16.4142C16.8314 16.0391 17 15.5304 17 15V9L14.24 2.11C14.1075 1.77679 13.9033 1.49637 13.6504 1.30028C13.3974 1.10419 13.1057 1.0002 12.808 1H5.192C4.89433 1.0002 4.60261 1.10419 4.34964 1.30028C4.09666 1.49637 3.89246 1.77679 3.76 2.11V2.11Z" stroke="white" stroke-width="2" stroke-linecap="round" stroke-linejoin="round"/>
</svg>
