<svg width="18" height="18" viewBox="0 0 18 18" fill="none" xmlns="http://www.w3.org/2000/svg">
<path d="M17 8.5008L9.43557 15.635C8.50887 16.509 7.25199 17 5.94144 17C4.63089 17 3.37401 16.509 2.44731 15.635C1.52061 14.761 1 13.5756 1 12.3396C1 11.1036 1.52061 9.9182 2.44731 9.04421L10.0117 1.91C10.6295 1.32734 11.4675 1 12.3412 1C13.2149 1 14.0528 1.32734 14.6706 1.91C15.2884 2.49266 15.6355 3.28292 15.6355 4.10693C15.6355 4.93094 15.2884 5.7212 14.6706 6.30386L7.09792 13.4381C6.78902 13.7294 6.37006 13.8931 5.93321 13.8931C5.49636 13.8931 5.0774 13.7294 4.7685 13.4381C4.4596 13.1467 4.28606 12.7516 4.28606 12.3396C4.28606 11.9276 4.4596 11.5325 4.7685 11.2411L11.7568 4.6581" stroke="#FFFDFD" stroke-width="2" stroke-linecap="round" stroke-linejoin="round"/>
</svg>
