<svg width="22" height="22" viewBox="0 0 22 22" fill="none" xmlns="http://www.w3.org/2000/svg">
<path d="M16 1H6C3.23858 1 1 3.23858 1 6V16C1 18.7614 3.23858 21 6 21H16C18.7614 21 21 18.7614 21 16V6C21 3.23858 18.7614 1 16 1Z" stroke="white" stroke-width="2" stroke-linecap="round" stroke-linejoin="round"/>
<path d="M14.9621 10.9866C15.0701 11.7148 14.9457 12.4585 14.6067 13.112C14.2676 13.7654 13.7311 14.2953 13.0736 14.6263C12.416 14.9573 11.6708 15.0725 10.944 14.9555C10.2171 14.8386 9.54568 14.4954 9.02513 13.9749C8.50457 13.4543 8.16141 12.7829 8.04446 12.056C7.9275 11.3292 8.0427 10.584 8.37368 9.92644C8.70466 9.26886 9.23456 8.73238 9.88801 8.39332C10.5415 8.05426 11.2852 7.92988 12.0134 8.03786C12.7562 8.14801 13.4439 8.49414 13.9749 9.02513C14.5059 9.55612 14.852 10.2438 14.9621 10.9866Z" stroke="white" stroke-width="2" stroke-linecap="round" stroke-linejoin="round"/>
<path d="M15.5 5.5H15.51" stroke="white" stroke-width="2" stroke-linecap="round" stroke-linejoin="round"/>
</svg>
