<svg width="135" height="32" viewBox="0 0 135 32" fill="none" xmlns="http://www.w3.org/2000/svg">
<path d="M1.50762 31.889C1.07583 31.889 0.712735 31.7418 0.418335 31.4474C0.143562 31.1726 0.00617517 30.8193 0.00617517 30.3875V16.9629C0.0258019 15.4124 0.388895 14.0189 1.09546 12.7824C1.80202 11.5459 2.76372 10.5744 3.98058 9.86784C5.19743 9.14165 6.5713 8.77856 8.10218 8.77856C9.65268 8.77856 11.0364 9.14165 12.2532 9.86784C13.4701 10.5744 14.4318 11.5459 15.1383 12.7824C15.8645 14.0189 16.2276 15.4124 16.2276 16.9629C16.2276 18.5134 15.894 19.9069 15.2267 21.1434C14.579 22.3602 13.686 23.3317 12.5476 24.0579C11.4093 24.7645 10.1237 25.1178 8.69098 25.1178C7.533 25.1178 6.46335 24.8822 5.48202 24.4112C4.52031 23.9205 3.69599 23.263 3.00906 22.4387V30.3875C3.00906 30.8193 2.87167 31.1726 2.5969 31.4474C2.32212 31.7418 1.95903 31.889 1.50762 31.889ZM8.10218 22.4682C9.10314 22.4682 9.99615 22.2326 10.7812 21.7616C11.5663 21.2709 12.1845 20.6134 12.6359 19.7891C13.107 18.9452 13.3425 18.0031 13.3425 16.9629C13.3425 15.903 13.107 14.961 12.6359 14.1366C12.1845 13.2927 11.5663 12.6352 10.7812 12.1642C9.99615 11.6735 9.10314 11.4282 8.10218 11.4282C7.12084 11.4282 6.22783 11.6735 5.42314 12.1642C4.63807 12.6352 4.01983 13.2927 3.56842 14.1366C3.117 14.961 2.8913 15.903 2.8913 16.9629C2.8913 18.0031 3.117 18.9452 3.56842 19.7891C4.01983 20.6134 4.63807 21.2709 5.42314 21.7616C6.22783 22.2326 7.12084 22.4682 8.10218 22.4682ZM27.5657 25.1178C25.9759 25.1178 24.5726 24.7743 23.3558 24.0874C22.1389 23.3808 21.1772 22.4191 20.4707 21.2022C19.7837 19.9658 19.4403 18.5526 19.4403 16.9629C19.4403 15.3535 19.7837 13.9404 20.4707 12.7235C21.1772 11.487 22.1389 10.5253 23.3558 9.8384C24.5726 9.13184 25.9759 8.77856 27.5657 8.77856C29.1358 8.77856 30.5293 9.13184 31.7462 9.8384C32.963 10.5253 33.9149 11.487 34.6019 12.7235C35.3084 13.9404 35.6617 15.3535 35.6617 16.9629C35.6617 18.5526 35.3182 19.9658 34.6313 21.2022C33.9444 22.4191 32.9925 23.3808 31.7756 24.0874C30.5588 24.7743 29.1555 25.1178 27.5657 25.1178ZM27.5657 22.4682C28.5863 22.4682 29.4891 22.2326 30.2742 21.7616C31.0592 21.2906 31.6677 20.6429 32.0995 19.8186C32.5509 18.9942 32.7766 18.0423 32.7766 16.9629C32.7766 15.8834 32.5509 14.9315 32.0995 14.1072C31.6677 13.2633 31.0592 12.6058 30.2742 12.1347C29.4891 11.6637 28.5863 11.4282 27.5657 11.4282C26.5451 11.4282 25.6423 11.6637 24.8572 12.1347C24.0721 12.6058 23.4539 13.2633 23.0025 14.1072C22.5511 14.9315 22.3254 15.8834 22.3254 16.9629C22.3254 18.0423 22.5511 18.9942 23.0025 19.8186C23.4539 20.6429 24.0721 21.2906 24.8572 21.7616C25.6423 22.2326 26.5451 22.4682 27.5657 22.4682ZM41.1318 14.9315C41.1318 13.7539 41.4164 12.7039 41.9855 11.7814C42.5743 10.8394 43.3594 10.0935 44.3407 9.544C45.3221 8.99445 46.4015 8.71968 47.5791 8.71968C48.7567 8.71968 49.6301 8.91595 50.1993 9.30848C50.7881 9.68139 51.0138 10.1328 50.8764 10.6627C50.8175 10.9375 50.6998 11.1534 50.5231 11.3104C50.3661 11.4478 50.1797 11.5361 49.9638 11.5754C49.7479 11.6146 49.5124 11.6048 49.2572 11.5459C48.0011 11.2908 46.8726 11.2711 45.8716 11.487C44.8707 11.7029 44.0758 12.1053 43.487 12.6941C42.9178 13.2829 42.6332 14.0287 42.6332 14.9315H41.1318ZM41.1612 25C40.6902 25 40.3271 24.8822 40.0719 24.6467C39.8168 24.3916 39.6892 24.0187 39.6892 23.528V10.3683C39.6892 9.89728 39.8168 9.53419 40.0719 9.27904C40.3271 9.02389 40.6902 8.89632 41.1612 8.89632C41.6519 8.89632 42.015 9.02389 42.2505 9.27904C42.5057 9.51456 42.6332 9.87765 42.6332 10.3683V23.528C42.6332 23.999 42.5057 24.3621 42.2505 24.6173C42.015 24.8724 41.6519 25 41.1612 25ZM59.4237 25C58.4424 25 57.5592 24.7547 56.7741 24.264C55.989 23.7537 55.3708 23.0668 54.9194 22.2032C54.468 21.3396 54.2422 20.3681 54.2422 19.2886V5.24576C54.2422 4.81397 54.3796 4.46069 54.6544 4.18592C54.9292 3.91115 55.2825 3.77376 55.7142 3.77376C56.146 3.77376 56.4993 3.91115 56.7741 4.18592C57.0489 4.46069 57.1862 4.81397 57.1862 5.24576V19.2886C57.1862 20.0737 57.4021 20.7312 57.8339 21.2611C58.2657 21.791 58.7956 22.056 59.4237 22.056H60.4246C60.7779 22.056 61.0723 22.1934 61.3078 22.4682C61.563 22.7429 61.6906 23.0962 61.6906 23.528C61.6906 23.9598 61.5237 24.3131 61.1901 24.5878C60.8761 24.8626 60.4639 25 59.9536 25H59.4237ZM52.888 12.017C52.4758 12.017 52.1422 11.8992 51.887 11.6637C51.6319 11.4282 51.5043 11.1338 51.5043 10.7805C51.5043 10.3879 51.6319 10.0739 51.887 9.8384C52.1422 9.60288 52.4758 9.48512 52.888 9.48512H59.6886C60.1008 9.48512 60.4345 9.60288 60.6896 9.8384C60.9448 10.0739 61.0723 10.3879 61.0723 10.7805C61.0723 11.1338 60.9448 11.4282 60.6896 11.6637C60.4345 11.8992 60.1008 12.017 59.6886 12.017H52.888ZM66.7356 25C66.3038 25 65.9407 24.8626 65.6463 24.5878C65.3716 24.2934 65.2342 23.9303 65.2342 23.4986V10.3978C65.2342 9.94635 65.3716 9.58325 65.6463 9.30848C65.9407 9.0337 66.3038 8.89632 66.7356 8.89632C67.187 8.89632 67.5501 9.0337 67.8249 9.30848C68.0997 9.58325 68.2371 9.94635 68.2371 10.3978V23.4986C68.2371 23.9303 68.0997 24.2934 67.8249 24.5878C67.5501 24.8626 67.187 25 66.7356 25ZM66.7356 6.27616C66.2057 6.27616 65.7445 6.08971 65.3519 5.7168C64.979 5.32427 64.7926 4.86304 64.7926 4.33312C64.7926 3.8032 64.979 3.35179 65.3519 2.97888C65.7445 2.58635 66.2057 2.39008 66.7356 2.39008C67.2655 2.39008 67.717 2.58635 68.0899 2.97888C68.4824 3.35179 68.6787 3.8032 68.6787 4.33312C68.6787 4.86304 68.4824 5.32427 68.0899 5.7168C67.717 6.08971 67.2655 6.27616 66.7356 6.27616ZM75.1189 25C74.746 25 74.4123 24.8626 74.1179 24.5878C73.8235 24.3131 73.6763 23.95 73.6763 23.4986V8.98464C73.6763 7.57152 73.9511 6.34485 74.5007 5.30464C75.0698 4.26442 75.8549 3.45973 76.8559 2.89056C77.8568 2.30176 79.0148 2.00736 80.3298 2.00736C80.7616 2.00736 81.1148 2.13493 81.3896 2.39008C81.684 2.64523 81.8312 2.96907 81.8312 3.3616C81.8312 3.73451 81.684 4.05835 81.3896 4.33312C81.1148 4.58827 80.7616 4.71584 80.3298 4.71584C79.6036 4.71584 78.9657 4.88267 78.4162 5.21632C77.8666 5.54997 77.4348 6.0112 77.1208 6.6C76.8264 7.1888 76.6792 7.88555 76.6792 8.69024V23.4986C76.6792 23.95 76.5418 24.3131 76.2671 24.5878C75.9923 24.8626 75.6096 25 75.1189 25ZM72.4104 12.017C71.9983 12.017 71.6646 11.8992 71.4095 11.6637C71.1543 11.4282 71.0267 11.1338 71.0267 10.7805C71.0267 10.3879 71.1543 10.0739 71.4095 9.8384C71.6646 9.60288 71.9983 9.48512 72.4104 9.48512H79.6821C80.0943 9.48512 80.4279 9.60288 80.6831 9.8384C80.9382 10.0739 81.0658 10.3879 81.0658 10.7805C81.0658 11.1338 80.9382 11.4282 80.6831 11.6637C80.4279 11.8992 80.0943 12.017 79.6821 12.017H72.4104ZM90.4764 25.1178C88.8867 25.1178 87.4834 24.7743 86.2665 24.0874C85.0497 23.3808 84.088 22.4191 83.3814 21.2022C82.6945 19.9658 82.351 18.5526 82.351 16.9629C82.351 15.3535 82.6945 13.9404 83.3814 12.7235C84.088 11.487 85.0497 10.5253 86.2665 9.8384C87.4834 9.13184 88.8867 8.77856 90.4764 8.77856C92.0466 8.77856 93.4401 9.13184 94.6569 9.8384C95.8738 10.5253 96.8257 11.487 97.5126 12.7235C98.2192 13.9404 98.5724 15.3535 98.5724 16.9629C98.5724 18.5526 98.229 19.9658 97.542 21.2022C96.8551 22.4191 95.9032 23.3808 94.6864 24.0874C93.4695 24.7743 92.0662 25.1178 90.4764 25.1178ZM90.4764 22.4682C91.497 22.4682 92.3999 22.2326 93.1849 21.7616C93.97 21.2906 94.5784 20.6429 95.0102 19.8186C95.4616 18.9942 95.6873 18.0423 95.6873 16.9629C95.6873 15.8834 95.4616 14.9315 95.0102 14.1072C94.5784 13.2633 93.97 12.6058 93.1849 12.1347C92.3999 11.6637 91.497 11.4282 90.4764 11.4282C89.4559 11.4282 88.553 11.6637 87.768 12.1347C86.9829 12.6058 86.3647 13.2633 85.9132 14.1072C85.4618 14.9315 85.2361 15.8834 85.2361 16.9629C85.2361 18.0423 85.4618 18.9942 85.9132 19.8186C86.3647 20.6429 86.9829 21.2906 87.768 21.7616C88.553 22.2326 89.4559 22.4682 90.4764 22.4682ZM90.5942 6.36448C90.1624 6.36448 89.7993 6.22709 89.5049 5.95232C89.2302 5.65792 89.0928 5.29482 89.0928 4.86304C89.0928 4.45088 89.2105 4.11722 89.446 3.86208L92.3312 0.976958C92.6256 0.682559 92.9788 0.535359 93.391 0.535359C93.8424 0.535359 94.2055 0.682559 94.4803 0.976958C94.7551 1.27136 94.8924 1.63445 94.8924 2.06624C94.8924 2.2625 94.863 2.44896 94.8041 2.6256C94.7452 2.80224 94.6373 2.95925 94.4803 3.09664L91.6246 5.95232C91.3498 6.22709 91.0064 6.36448 90.5942 6.36448ZM106.427 25C105.564 25 104.798 24.7645 104.131 24.2934C103.464 23.8224 102.943 23.1845 102.571 22.3798C102.198 21.5555 102.011 20.6134 102.011 19.5536V3.47936C102.011 3.04757 102.149 2.69429 102.423 2.41952C102.698 2.14475 103.051 2.00736 103.483 2.00736C103.915 2.00736 104.268 2.14475 104.543 2.41952C104.818 2.69429 104.955 3.04757 104.955 3.47936V19.5536C104.955 20.2798 105.093 20.8784 105.367 21.3494C105.642 21.8205 105.995 22.056 106.427 22.056H107.163C107.556 22.056 107.87 22.1934 108.105 22.4682C108.36 22.7429 108.488 23.0962 108.488 23.528C108.488 23.9598 108.302 24.3131 107.929 24.5878C107.556 24.8626 107.075 25 106.486 25H106.427ZM112.78 25C112.349 25 111.986 24.8626 111.691 24.5878C111.416 24.2934 111.279 23.9303 111.279 23.4986V10.3978C111.279 9.94635 111.416 9.58325 111.691 9.30848C111.986 9.0337 112.349 8.89632 112.78 8.89632C113.232 8.89632 113.595 9.0337 113.87 9.30848C114.145 9.58325 114.282 9.94635 114.282 10.3978V23.4986C114.282 23.9303 114.145 24.2934 113.87 24.5878C113.595 24.8626 113.232 25 112.78 25ZM112.78 6.27616C112.251 6.27616 111.789 6.08971 111.397 5.7168C111.024 5.32427 110.837 4.86304 110.837 4.33312C110.837 3.8032 111.024 3.35179 111.397 2.97888C111.789 2.58635 112.251 2.39008 112.78 2.39008C113.31 2.39008 113.762 2.58635 114.135 2.97888C114.527 3.35179 114.724 3.8032 114.724 4.33312C114.724 4.86304 114.527 5.32427 114.135 5.7168C113.762 6.08971 113.31 6.27616 112.78 6.27616ZM126.728 25.1178C125.138 25.1178 123.735 24.7743 122.518 24.0874C121.301 23.3808 120.339 22.4191 119.633 21.2022C118.946 19.9658 118.602 18.5526 118.602 16.9629C118.602 15.3535 118.946 13.9404 119.633 12.7235C120.339 11.487 121.301 10.5253 122.518 9.8384C123.735 9.13184 125.138 8.77856 126.728 8.77856C128.298 8.77856 129.692 9.13184 130.908 9.8384C132.125 10.5253 133.077 11.487 133.764 12.7235C134.471 13.9404 134.824 15.3535 134.824 16.9629C134.824 18.5526 134.48 19.9658 133.793 21.2022C133.107 22.4191 132.155 23.3808 130.938 24.0874C129.721 24.7743 128.318 25.1178 126.728 25.1178ZM126.728 22.4682C127.748 22.4682 128.651 22.2326 129.436 21.7616C130.221 21.2906 130.83 20.6429 131.262 19.8186C131.713 18.9942 131.939 18.0423 131.939 16.9629C131.939 15.8834 131.713 14.9315 131.262 14.1072C130.83 13.2633 130.221 12.6058 129.436 12.1347C128.651 11.6637 127.748 11.4282 126.728 11.4282C125.707 11.4282 124.804 11.6637 124.019 12.1347C123.234 12.6058 122.616 13.2633 122.165 14.1072C121.713 14.9315 121.488 15.8834 121.488 16.9629C121.488 18.0423 121.713 18.9942 122.165 19.8186C122.616 20.6429 123.234 21.2906 124.019 21.7616C124.804 22.2326 125.707 22.4682 126.728 22.4682Z" fill="white"/>
</svg>
