<svg width="40" height="40" viewBox="0 0 40 40" fill="none" xmlns="http://www.w3.org/2000/svg">
<circle cx="20" cy="20" r="19.5" fill="black" stroke="#808080"/>
<path d="M10.4772 23.4412C6.57063 21.291 7.34436 15.5237 11.6804 14.4724L24.3769 11.3941C28.0043 10.5146 31.2662 13.8042 30.3069 17.3742L27.9502 26.1439C27.1285 29.2019 23.6163 30.6734 20.817 29.1325L10.4772 23.4412Z" fill="#D8F8EA"/>
<path d="M10.0474 13.7461C10.0474 13.3735 10.3528 13.0715 10.7295 13.0715H28.0757C28.4525 13.0715 28.7579 13.3735 28.7579 13.7461V17.5111H10.0474V13.7461Z" fill="#2FC18C" stroke="#036B52"/>
<path d="M14.0602 14.9614H27.4446V15.6232H14.0602V14.9614Z" fill="#036B52"/>
<path fill-rule="evenodd" clip-rule="evenodd" d="M12.2561 15.7741C12.5454 15.7741 12.78 15.5421 12.78 15.256C12.78 14.9699 12.5454 14.7379 12.2561 14.7379C11.9667 14.7379 11.7321 14.9699 11.7321 15.256C11.7321 15.5421 11.9667 15.7741 12.2561 15.7741ZM12.2561 16.0474C12.6981 16.0474 13.0564 15.693 13.0564 15.256C13.0564 14.8189 12.6981 14.4646 12.2561 14.4646C11.8141 14.4646 11.4557 14.8189 11.4557 15.256C11.4557 15.693 11.8141 16.0474 12.2561 16.0474Z" fill="#036B52"/>
<path d="M28.7579 17.5383H10.0474V21.9779H28.7579V17.5383Z" fill="#2FC18C" stroke="#036B52"/>
<path d="M27.4446 19.4282H14.0602V20.09H27.4446V19.4282Z" fill="#036B52"/>
<path fill-rule="evenodd" clip-rule="evenodd" d="M12.2561 20.2411C12.5454 20.2411 12.78 20.0091 12.78 19.723C12.78 19.4369 12.5454 19.2049 12.2561 19.2049C11.9667 19.2049 11.7321 19.4369 11.7321 19.723C11.7321 20.0091 11.9667 20.2411 12.2561 20.2411ZM12.2561 20.5144C12.6981 20.5144 13.0564 20.1601 13.0564 19.723C13.0564 19.286 12.6981 18.9316 12.2561 18.9316C11.8141 18.9316 11.4557 19.286 11.4557 19.723C11.4557 20.1601 11.8141 20.5144 12.2561 20.5144Z" fill="#036B52"/>
<path d="M10.0474 22.0054H28.7579V25.7704C28.7579 26.1429 28.4525 26.4449 28.0757 26.4449H10.7295C10.3528 26.4449 10.0474 26.1429 10.0474 25.7704V22.0054Z" fill="#2FC18C" stroke="#036B52"/>
<path d="M27.4446 23.895H14.0602V24.5568H27.4446V23.895Z" fill="#036B52"/>
<path fill-rule="evenodd" clip-rule="evenodd" d="M12.2561 24.7079C12.5454 24.7079 12.78 24.4759 12.78 24.1898C12.78 23.9037 12.5454 23.6717 12.2561 23.6717C11.9667 23.6717 11.7321 23.9037 11.7321 24.1898C11.7321 24.4759 11.9667 24.7079 12.2561 24.7079ZM12.2561 24.9812C12.6981 24.9812 13.0564 24.6269 13.0564 24.1898C13.0564 23.7527 12.6981 23.3984 12.2561 23.3984C11.8141 23.3984 11.4557 23.7527 11.4557 24.1898C11.4557 24.6269 11.8141 24.9812 12.2561 24.9812Z" fill="#036B52"/>
</svg>
