<svg width="40" height="40" viewBox="0 0 40 40" fill="none" xmlns="http://www.w3.org/2000/svg">
<circle cx="20" cy="20" r="19.5" fill="black" stroke="#808080"/>
<path d="M10.3377 23.4412C6.40603 21.291 7.18474 15.5237 11.5487 14.4724L24.3269 11.3941C27.9777 10.5146 31.2605 13.8042 30.2951 17.3742L27.9231 26.1439C27.0961 29.2019 23.5614 30.6734 20.7441 29.1325L10.3377 23.4412Z" fill="#DCCDE4"/>
<path fill-rule="evenodd" clip-rule="evenodd" d="M14.6236 25.433L18.7272 21.457L18.8873 21.6165L14.7837 25.5925L14.6236 25.433Z" fill="#41197F"/>
<path fill-rule="evenodd" clip-rule="evenodd" d="M22.4322 25.4326L18.7275 21.4567L18.8956 21.3054L22.6003 25.2813L22.4322 25.4326Z" fill="#41197F"/>
<path fill-rule="evenodd" clip-rule="evenodd" d="M22.7972 17.4634L18.7273 21.4572L18.5662 21.2987L22.6361 17.3049L22.7972 17.4634Z" fill="#41197F"/>
<path fill-rule="evenodd" clip-rule="evenodd" d="M18.7272 13.5048L15.0225 17.4807L14.8544 17.3294L18.559 13.3535L18.7272 13.5048Z" fill="#41197F"/>
<path fill-rule="evenodd" clip-rule="evenodd" d="M22.7741 17.4812L18.7275 13.5053L18.8887 13.3469L22.9353 17.3228L22.7741 17.4812Z" fill="#41197F"/>
<path fill-rule="evenodd" clip-rule="evenodd" d="M26.4786 21.457L22.7739 17.4811L22.9421 17.3298L26.6468 21.3058L26.4786 21.457Z" fill="#41197F"/>
<path d="M23.8111 25.4525C23.8111 26.2263 23.1726 26.8536 22.385 26.8536C21.5974 26.8536 20.9589 26.2263 20.9589 25.4525C20.9589 24.6786 21.5974 24.0513 22.385 24.0513C23.1726 24.0513 23.8111 24.6786 23.8111 25.4525Z" fill="#41197F"/>
<path d="M15.9942 25.4525C15.9942 26.2263 15.3557 26.8536 14.5681 26.8536C13.7805 26.8536 13.142 26.2263 13.142 25.4525C13.142 24.6786 13.7805 24.0513 14.5681 24.0513C15.3557 24.0513 15.9942 24.6786 15.9942 25.4525Z" fill="#DCCDE4"/>
<path fill-rule="evenodd" clip-rule="evenodd" d="M14.5681 26.6353C15.2329 26.6353 15.7719 26.1057 15.7719 25.4525C15.7719 24.7992 15.2329 24.2696 14.5681 24.2696C13.9032 24.2696 13.3642 24.7992 13.3642 25.4525C13.3642 26.1057 13.9032 26.6353 14.5681 26.6353ZM14.5681 26.8536C15.3557 26.8536 15.9942 26.2263 15.9942 25.4525C15.9942 24.6786 15.3557 24.0513 14.5681 24.0513C13.7805 24.0513 13.142 24.6786 13.142 25.4525C13.142 26.2263 13.7805 26.8536 14.5681 26.8536Z" fill="#41197F"/>
<path d="M20.1141 21.4056C20.1141 22.1794 19.4756 22.8068 18.688 22.8068C17.9004 22.8068 17.2619 22.1794 17.2619 21.4056C17.2619 20.6317 17.9004 20.0044 18.688 20.0044C19.4756 20.0044 20.1141 20.6317 20.1141 21.4056Z" fill="#41197F"/>
<path d="M27.931 21.4056C27.931 22.1794 27.2925 22.8068 26.5049 22.8068C25.7173 22.8068 25.0789 22.1794 25.0789 21.4056C25.0789 20.6317 25.7173 20.0044 26.5049 20.0044C27.2925 20.0044 27.931 20.6317 27.931 21.4056Z" fill="#DCCDE4"/>
<path fill-rule="evenodd" clip-rule="evenodd" d="M26.5049 22.5884C27.1698 22.5884 27.7088 22.0588 27.7088 21.4056C27.7088 20.7523 27.1698 20.2228 26.5049 20.2228C25.8401 20.2228 25.3011 20.7523 25.3011 21.4056C25.3011 22.0588 25.8401 22.5884 26.5049 22.5884ZM26.5049 22.8068C27.2925 22.8068 27.931 22.1794 27.931 21.4056C27.931 20.6317 27.2925 20.0044 26.5049 20.0044C25.7173 20.0044 25.0789 20.6317 25.0789 21.4056C25.0789 22.1794 25.7173 22.8068 26.5049 22.8068Z" fill="#41197F"/>
<path d="M24.3394 17.4607C24.3394 18.2346 23.6536 18.8619 22.8076 18.8619C21.9617 18.8619 21.2759 18.2346 21.2759 17.4607C21.2759 16.6869 21.9617 16.0596 22.8076 16.0596C23.6536 16.0596 24.3394 16.6869 24.3394 17.4607Z" fill="#41197F"/>
<path d="M16.5222 17.4607C16.5222 18.2346 15.8601 18.8619 15.0433 18.8619C14.2265 18.8619 13.5644 18.2346 13.5644 17.4607C13.5644 16.6869 14.2265 16.0596 15.0433 16.0596C15.8601 16.0596 16.5222 16.6869 16.5222 17.4607Z" fill="#DCCDE4"/>
<path fill-rule="evenodd" clip-rule="evenodd" d="M15.0433 18.6436C15.7328 18.6436 16.2918 18.114 16.2918 17.4607C16.2918 16.8075 15.7328 16.2779 15.0433 16.2779C14.3538 16.2779 13.7949 16.8075 13.7949 17.4607C13.7949 18.114 14.3538 18.6436 15.0433 18.6436ZM15.0433 18.8619C15.8601 18.8619 16.5222 18.2346 16.5222 17.4607C16.5222 16.6869 15.8601 16.0596 15.0433 16.0596C14.2265 16.0596 13.5644 16.6869 13.5644 17.4607C13.5644 18.2346 14.2265 18.8619 15.0433 18.8619Z" fill="#41197F"/>
<path d="M20.2198 13.465C20.2198 14.2676 19.5576 14.9181 18.7408 14.9181C17.924 14.9181 17.2619 14.2676 17.2619 13.465C17.2619 12.6625 17.924 12.012 18.7408 12.012C19.5576 12.012 20.2198 12.6625 20.2198 13.465Z" fill="#41197F"/>
</svg>
