<svg width="40" height="40" viewBox="0 0 40 40" fill="none" xmlns="http://www.w3.org/2000/svg">
<circle cx="20" cy="20" r="19.5" fill="black" stroke="#808080"/>
<path d="M10.3758 23.3592C6.33813 21.2013 7.13784 15.4138 11.6195 14.3588L24.7423 11.2696C28.4915 10.387 31.8629 13.6882 30.8714 17.2708L28.4355 26.0713C27.5862 29.1402 23.9561 30.6168 21.0628 29.0705L10.3758 23.3592Z" fill="#D8F8EA"/>
<path d="M10.4976 27.2012V21.0367L15.4174 19.1953L20.4206 21.0367V27.2012L15.4174 29.0426L10.4976 27.2012Z" fill="#2FC18C"/>
<path d="M15.5081 22.7741L10.6539 21.0128L15.44 19.1047L20.3072 21.0128L15.5081 22.7741Z" fill="#036B52"/>
<path fill-rule="evenodd" clip-rule="evenodd" d="M15.4817 22.6301L20.5662 20.855L20.6699 21.1287L15.4784 22.9412L10.5986 21.1277L10.7082 20.856L15.4817 22.6301Z" fill="#036B52"/>
<path fill-rule="evenodd" clip-rule="evenodd" d="M15.3492 29.0422V22.7175H15.6526V29.0422H15.3492Z" fill="#036B52"/>
<path fill-rule="evenodd" clip-rule="evenodd" d="M15.5013 19.0388L20.5723 20.9368V27.3004L15.7016 29.1233C15.5727 29.1717 15.4297 29.1721 15.3005 29.1245L10.7031 27.4325C10.488 27.3533 10.3459 27.155 10.3459 26.9338V21.3034C10.3459 21.0822 10.488 20.8839 10.7031 20.8047L15.5013 19.0388ZM15.5004 19.3511L10.8117 21.0767C10.7139 21.1127 10.6493 21.2029 10.6493 21.3034V26.9338C10.6493 27.0344 10.7139 27.1245 10.8117 27.1605L15.4091 28.8525C15.4678 28.8741 15.5328 28.8739 15.5914 28.852L20.2689 27.1013V21.1359L15.5004 19.3511Z" fill="#036B52"/>
<path d="M20.5043 27.2012V21.0367L25.4241 19.1953L30.4272 21.0367V27.2012L25.4241 29.0426L20.5043 27.2012Z" fill="#2FC18C"/>
<path fill-rule="evenodd" clip-rule="evenodd" d="M25.5674 22.6289L20.672 20.855L20.5648 21.1275L25.5702 22.9413L30.3276 21.1266L30.2156 20.8559L25.5674 22.6289Z" fill="#036B52"/>
<path fill-rule="evenodd" clip-rule="evenodd" d="M25.356 29.0422V22.7175H25.6594V29.0422H25.356Z" fill="#036B52"/>
<path fill-rule="evenodd" clip-rule="evenodd" d="M25.508 19.0388L30.2248 20.8042C30.4384 20.8842 30.579 21.0817 30.579 21.3018V26.9354C30.579 27.1555 30.4384 27.3531 30.2248 27.433L25.7084 29.1233C25.5794 29.1717 25.4364 29.1721 25.3072 29.1245L20.3527 27.301V20.9362L25.508 19.0388ZM20.6561 21.1365V27.1007L25.4158 28.8525C25.4746 28.8741 25.5396 28.8739 25.5982 28.852L30.1147 27.1616C30.2118 27.1253 30.2756 27.0355 30.2756 26.9354V21.3018C30.2756 21.2017 30.2118 21.1119 30.1147 21.0756L25.5071 19.3511L20.6561 21.1365Z" fill="#036B52"/>
<path d="M25.52 22.7736L20.6655 21.0258L25.4042 19.2185L30.2734 20.9287L25.52 22.7736Z" fill="#036B52"/>
<path d="M15.5006 19.1951V13.0306L20.4204 11.1892L25.4236 13.0306V19.1951L20.4204 21.0365L15.5006 19.1951Z" fill="#2FC18C"/>
<path fill-rule="evenodd" clip-rule="evenodd" d="M20.4609 14.5589L25.2671 12.9265L25.3683 13.2011L20.4638 14.8668L15.5608 13.2991L15.6567 13.0227L20.4609 14.5589Z" fill="#036B52"/>
<path fill-rule="evenodd" clip-rule="evenodd" d="M20.3527 21.0363V14.7117H20.6561V21.0363H20.3527Z" fill="#036B52"/>
<path fill-rule="evenodd" clip-rule="evenodd" d="M20.3038 11.1069C20.433 11.0594 20.576 11.0598 20.7049 11.108L25.2214 12.7984C25.435 12.8784 25.5756 13.0759 25.5756 13.296V19.2946L20.5046 21.1926L15.3492 19.2952V13.2976C15.3492 13.0764 15.4913 12.8781 15.7064 12.7989L20.3038 11.1069ZM20.5947 11.3794C20.5361 11.3575 20.4711 11.3573 20.4124 11.3789L15.815 13.0709C15.7172 13.1069 15.6526 13.1971 15.6526 13.2976V19.0949L20.5037 20.8803L25.2722 19.0955V13.296C25.2722 13.1959 25.2083 13.1061 25.1112 13.0698L20.5947 11.3794Z" fill="#036B52"/>
<path d="M20.4221 14.6991L15.609 13.0641L20.4221 11.1467L25.2893 13.0548L20.4221 14.6991Z" fill="#036B52"/>
</svg>
