<svg width="834" height="634" viewBox="0 0 834 634" fill="none" xmlns="http://www.w3.org/2000/svg">
<g clip-path="url(#clip0_1333_59)">
<path d="M770.925 575.462C743.625 596.252 710.365 617.312 677.665 627.242C668.238 630.19 658.511 632.072 648.665 632.852C639.46 633.592 630.195 632.873 621.215 630.722C597.615 624.852 575.725 614.572 554.545 602.562C547.625 598.632 540.785 594.522 533.985 590.322C522.885 583.462 511.895 576.362 500.875 569.432C499.225 568.382 497.585 567.352 495.935 566.332H495.925C493.265 564.662 490.598 563.016 487.925 561.392C487.455 561.102 486.985 560.822 486.505 560.532C481.455 557.472 476.318 554.482 471.095 551.562C470.455 551.212 469.815 550.852 469.175 550.502C459.069 544.897 448.682 539.813 438.055 535.272C431.075 532.332 424.005 529.682 416.865 527.422H416.855C414.125 526.562 411.385 525.752 408.635 525.012C400.389 522.75 391.985 521.105 383.495 520.092C371.795 518.676 359.961 518.77 348.285 520.372C347.495 520.482 346.715 520.592 345.925 520.722C314.325 525.782 285.485 542.842 253.745 546.862C252.715 546.992 251.695 547.112 250.665 547.202C250.225 547.242 249.785 547.292 249.345 547.322C240.121 548.112 230.838 547.884 221.665 546.642C196.035 543.262 171.075 532.772 148.605 519.552C96.0747 488.642 53.4747 441.132 27.5747 386.112C23.1271 376.683 19.1784 367.026 15.7448 357.182C6.14467 329.885 0.857879 301.258 0.0747132 272.332C-2.35529 171.972 54.6747 71.2822 144.215 25.8922C233.765 -19.4978 351.565 -4.4878 423.785 65.2422C467.595 107.542 492.945 164.862 525.915 216.072C558.885 267.272 605.745 316.182 666.185 323.642C696.975 327.442 729.195 320.092 758.705 329.652C775.045 334.952 788.985 345.092 800.215 358.012C807.765 366.78 814.083 376.536 818.995 387.012C822.594 394.586 825.516 402.463 827.725 410.552C828.135 412.042 828.515 413.532 828.885 415.022C843.585 475.062 820.095 538.002 770.925 575.462Z" fill="white"/>
<path d="M279.164 466.772H185.164C171.081 466.772 159.664 478.189 159.664 492.272V492.272C159.664 506.356 171.081 517.772 185.164 517.772H279.164C293.247 517.772 304.664 506.356 304.664 492.272C304.664 478.189 293.247 466.772 279.164 466.772Z" fill="#3F3D56"/>
<path d="M250.664 504.772V547.202C241.008 548.137 231.277 547.949 221.664 546.642V504.772H250.664Z" fill="#3F3D56"/>
<path d="M348.284 520.372C347.494 520.482 346.714 520.592 345.924 520.722C314.324 525.782 285.484 542.842 253.744 546.862C252.714 546.992 251.694 547.112 250.664 547.202C250.224 547.242 249.784 547.292 249.344 547.322C241.594 539.732 233.844 531.652 226.564 523.282C222.614 518.752 218.794 514.132 215.204 509.452C205.884 497.372 197.984 484.952 192.764 472.752C193.294 466.902 189.654 453.372 187.914 443.012L187.904 443.002C187.164 438.652 186.764 434.872 187.134 432.442C189.254 418.422 200.704 420.032 204.224 406.292C207.399 403.657 210.78 401.279 214.334 399.182C214.924 398.832 215.524 398.482 216.144 398.132L254.344 371.732L268.944 386.052L291.164 407.852L315.244 431.462L294.804 452.112C294.804 452.112 311.884 471.802 331.854 498.052C337.214 505.102 342.784 512.632 348.284 520.372Z" fill="#2F2E41"/>
<path d="M677.664 504.772V627.242C668.237 630.19 658.51 632.072 648.664 632.852V504.772H677.664Z" fill="#3F3D56"/>
<path d="M715.164 494.772H621.164C607.081 494.772 595.664 506.189 595.664 520.272V520.272C595.664 534.356 607.081 545.772 621.164 545.772H715.164C729.247 545.772 740.664 534.356 740.664 520.272C740.664 506.189 729.247 494.772 715.164 494.772Z" fill="#3F3D56"/>
<path d="M486.504 560.532C481.454 557.472 476.317 554.482 471.094 551.562C470.454 551.212 469.814 550.852 469.174 550.502L472.614 549.032L481.894 545.042L481.984 545.002L482.084 545.342L486.504 560.532Z" fill="#FFB6B6"/>
<path d="M500.874 569.432C499.224 568.382 497.584 567.352 495.934 566.332H495.924C493.264 564.662 490.597 563.015 487.924 561.392C487.454 561.102 486.984 560.822 486.504 560.532C481.454 557.472 476.317 554.482 471.094 551.562C470.454 551.212 469.814 550.852 469.174 550.502C459.068 544.896 448.681 539.813 438.054 535.272C431.074 532.332 424.004 529.682 416.864 527.422H416.854L411.244 518.032L385.994 475.742L380.444 466.452C380.444 466.452 361.514 472.052 334.724 477.422C324.974 479.382 314.194 481.302 302.884 482.922C290.794 484.642 278.114 486.012 265.514 486.672C259.504 486.992 253.514 487.152 247.614 487.102C232.364 487.002 217.714 485.572 204.884 482.172C200.604 478.152 187.704 472.682 178.464 467.672H178.454C174.574 465.572 171.354 463.562 169.664 461.772C159.924 451.472 168.244 443.442 159.584 432.202C159.467 428.078 159.678 423.952 160.214 419.862C160.304 419.182 160.394 418.492 160.504 417.792L163.234 371.432L183.514 368.752L214.374 364.672L247.804 360.252L251.484 389.072C251.484 389.072 277.514 387.752 310.494 388.192C363.464 388.912 434.344 394.192 443.944 416.852C444.844 418.982 445.744 421.132 446.644 423.282C448.784 428.422 450.904 433.589 453.004 438.782C460.614 457.582 467.874 476.562 474.504 494.502C478.624 505.662 482.504 516.422 486.074 526.492C488.944 534.592 491.604 542.252 494.034 549.302C496.254 555.742 498.264 561.672 500.054 566.992C500.334 567.822 500.604 568.642 500.874 569.432Z" fill="#2F2E41"/>
<path d="M314.319 288.545L250.264 234.143L291.939 191.966L321.014 239.589L428.788 260.956C432.028 258.517 435.909 257.074 439.955 256.802C444.002 256.531 448.04 257.442 451.578 259.426C455.115 261.41 457.999 264.38 459.878 267.974C461.757 271.569 462.549 275.632 462.158 279.669C461.768 283.706 460.211 287.542 457.677 290.71C455.144 293.877 451.744 296.239 447.892 297.507C444.039 298.776 439.901 298.896 435.982 297.853C432.062 296.81 428.531 294.65 425.818 291.635L314.319 288.545Z" fill="#A0616A"/>
<path d="M193.654 162.647C186.251 186.729 256.754 244.167 256.754 244.167C257.537 238.385 297.509 288.24 300.229 283.725C307.958 270.893 316.463 239.173 325.386 235.119C330.489 232.801 301.215 200.576 301.215 200.576C301.215 200.576 286.282 180.82 266.566 155.781C261.124 148.599 253.952 142.911 245.72 139.246C237.487 135.581 228.462 134.058 219.482 134.82C219.482 134.82 201.057 138.564 193.654 162.647Z" fill="#3F3D56"/>
<path d="M224.826 109.333C248.753 109.333 268.15 89.9363 268.15 66.0091C268.15 42.0819 248.753 22.6851 224.826 22.6851C200.899 22.6851 181.502 42.0819 181.502 66.0091C181.502 89.9363 200.899 109.333 224.826 109.333Z" fill="#A0616A"/>
<path d="M246.486 137.967C255.82 143.516 261.403 153.712 264.608 164.086C270.542 183.293 274.114 203.152 275.245 223.223L278.63 283.313L320.557 411.26C284.22 442.006 147.638 418.247 147.638 418.247C147.638 418.247 143.445 416.85 147.638 412.657C151.83 408.464 155.912 412.179 151.719 407.986C147.527 403.794 150.417 408.465 151.814 404.272C153.212 400.079 151.814 402.874 150.417 401.477C149.019 400.079 161.236 387.501 161.236 387.501L150.056 314.058L136.08 165.918C152.851 144.955 186.579 132.597 186.579 132.597L195.293 116.911L238.868 120.397L246.486 137.967Z" fill="#3F3D56"/>
<path d="M260.538 42.9915C263.905 45.503 266.4 49.0073 267.671 53.011C268.159 46.468 268.19 39.8989 267.764 33.3516C267.253 28.7508 264.014 27.7159 260.263 26.5167C256.876 25.4333 253.045 24.2095 252.015 19.7432C238.396 6.49472 214.689 7.16278 198.464 11.784C189.537 14.327 184.4 17.5943 183.94 19.5082L183.845 19.9022L183.482 20.0835C176.601 23.5243 175.261 34.3898 175.35 42.8987C175.517 58.9301 181.053 77.1377 184.171 78.6168C184.336 78.6951 184.378 78.6645 184.449 78.6049C189.144 74.8526 194.873 78.8901 197.39 81.0849C198.875 71.1211 203.656 61.9423 210.97 55.0144C218.283 48.0865 227.707 43.8092 237.737 42.8656C241.012 42.549 244.261 42.0042 247.461 41.235C249.084 40.8152 250.752 40.5962 252.428 40.5831C255.314 40.5393 258.144 41.3797 260.538 42.9915V42.9915Z" fill="#2F2E41"/>
<path d="M205.949 353.817L192.696 347.03C191.986 346.524 191.482 345.779 191.275 344.932C191.069 344.085 191.174 343.192 191.571 342.416C191.969 341.64 192.632 341.033 193.44 340.705C194.248 340.378 195.147 340.352 195.973 340.633L209.225 347.42C209.935 347.926 210.44 348.67 210.646 349.518C210.853 350.365 210.748 351.258 210.35 352.034C209.953 352.81 209.29 353.417 208.482 353.744C207.673 354.072 206.775 354.098 205.949 353.817L205.949 353.817Z" fill="#6C63FF"/>
<path d="M161.346 335.633L139.545 254.471L197.804 243.442L194.671 299.151L271.218 377.97C275.27 377.804 279.283 378.821 282.768 380.897C286.252 382.973 289.057 386.017 290.841 389.66C292.625 393.302 293.311 397.385 292.814 401.41C292.318 405.436 290.661 409.23 288.046 412.33C285.431 415.43 281.97 417.702 278.086 418.869C274.201 420.036 270.061 420.048 266.171 418.902C262.28 417.757 258.806 415.505 256.173 412.42C253.54 409.335 251.862 405.55 251.343 401.528L161.346 335.633Z" fill="#A0616A"/>
<path d="M133.584 163.471C113.809 179.083 139.19 266.406 139.19 266.406C143.12 262.094 147.686 325.831 152.489 323.661C166.141 317.493 191.162 296.223 200.808 297.957C206.325 298.948 200.545 255.797 200.545 255.797C200.545 255.797 199.482 231.056 197.484 199.249C197.086 190.247 194.417 181.491 189.725 173.798C185.033 166.104 178.47 159.723 170.648 155.248C170.648 155.248 153.359 147.86 133.584 163.471Z" fill="#3F3D56"/>
<path d="M818.994 387.012L27.5741 386.112C23.1265 376.683 19.1777 367.026 15.7441 357.182L800.214 358.012C807.764 366.78 814.082 376.536 818.994 387.012V387.012Z" fill="#3F3D56"/>
<path d="M566.924 596.832C562.834 598.812 558.708 600.722 554.544 602.562C547.624 598.632 540.784 594.522 533.984 590.322L559.204 579.242L566.924 596.832Z" fill="#FFB6B6"/>
<path d="M750.805 459.032C746.705 464.532 742.475 469.922 738.115 475.202C734.095 480.072 729.968 484.849 725.735 489.532C723.985 491.472 722.215 493.403 720.405 495.312C717.075 498.882 713.671 502.392 710.195 505.842C703.935 507.812 691.255 511.282 677.665 514.522C667.775 516.872 657.405 519.102 648.665 520.522C643.772 521.401 638.823 521.929 633.855 522.102C627.955 522.152 621.965 521.992 615.955 521.672C609.175 521.312 602.385 520.752 595.675 520.032C578.225 518.202 561.325 515.352 546.745 512.422C541.405 511.362 536.385 510.282 531.765 509.232C523.015 507.262 515.695 505.422 510.395 504.022C504.425 502.462 501.025 501.452 501.025 501.452L486.075 526.492L478.315 539.482L472.615 549.032L471.095 551.562C470.455 551.213 469.815 550.853 469.175 550.503C459.069 544.897 448.682 539.813 438.055 535.272C431.075 532.332 424.005 529.682 416.865 527.422H416.855C414.125 526.562 411.385 525.752 408.635 525.012C409.495 522.702 410.365 520.376 411.245 518.032C412.885 513.662 414.558 509.252 416.265 504.802C419.955 495.163 423.775 485.382 427.705 475.652C430.925 467.662 434.205 459.702 437.525 451.852C439.055 448.232 442.165 445.052 446.515 442.262C448.594 440.951 450.762 439.789 453.005 438.782C465.455 433.112 483.795 429.422 504.005 427.052C505.675 426.862 507.355 426.672 509.045 426.492C525.775 424.732 543.525 423.822 560.125 423.402C568.435 423.192 576.455 423.112 583.915 423.102C586.325 423.102 588.668 423.109 590.945 423.122H590.955C597.105 423.152 602.765 423.242 607.745 423.342C608.715 423.362 609.655 423.392 610.575 423.412H610.585C611.205 423.422 611.815 423.442 612.415 423.452C623.305 423.732 629.985 424.072 629.985 424.072L632.575 403.753L633.105 399.652L633.605 395.753V395.742L633.665 395.253L634.075 395.242L641.275 395.102L701.795 393.922L734.855 393.272L729.615 415.732L720.965 452.792C721.845 458.652 751.105 454.062 750.805 459.032Z" fill="#2F2E41"/>
<path d="M574.385 593.132C571.915 594.392 569.425 595.632 566.925 596.832C562.835 598.812 558.708 600.722 554.545 602.562C547.625 598.632 540.785 594.522 533.985 590.322C522.885 583.462 511.895 576.362 500.875 569.432C499.225 568.382 497.585 567.352 495.935 566.332H495.925C491.385 559.592 486.755 552.572 482.085 545.342C482.015 545.242 481.955 545.142 481.895 545.042C480.695 543.202 479.502 541.349 478.315 539.482C470.845 527.782 463.335 515.582 456.045 503.122L474.505 494.502L508.825 478.482L514.745 475.722L531.765 509.232L546.945 539.122L550.325 545.772L574.385 593.132Z" fill="#2F2E41"/>
<path d="M579.558 432.25L667.058 347.866L691.311 279.197L655.538 263.641C637.163 281.243 617.301 336.065 617.301 336.065L557.088 412.67C556.619 412.83 556.151 413.001 555.689 413.205C552.977 414.401 550.619 416.276 548.844 418.65C547.068 421.023 545.935 423.814 545.553 426.754C545.172 429.693 545.555 432.681 546.666 435.429C547.777 438.177 549.578 440.592 551.894 442.441C554.211 444.289 556.966 445.509 559.892 445.982C562.818 446.455 565.816 446.165 568.598 445.14C571.379 444.116 573.849 442.391 575.769 440.133C577.689 437.875 578.994 435.16 579.558 432.25V432.25Z" fill="#FFB8B8"/>
<path d="M645.471 271.308L690.846 285.713L691.017 285.685C707.906 282.856 721.92 255.272 730.702 232.631C733.591 225.163 733.537 216.876 730.551 209.446C727.564 202.016 721.868 195.997 714.614 192.606V192.606C709.246 190.141 703.295 189.226 697.435 189.966C691.574 190.705 686.037 193.069 681.449 196.791L658.149 215.83L645.471 271.308Z" fill="#6C63FF"/>
<path d="M750.622 460.045L750.887 459.693C765.044 440.917 745.681 394.42 742.754 387.676L755.917 383.777L753.623 358.713L752.518 347.537L762.753 337.817L762.787 337.569L769.826 287.477L779.036 254.323C782.507 241.789 782.581 228.558 779.249 215.986C775.917 203.415 769.299 191.957 760.075 182.788L741.248 164.095L718.692 128.789L680.872 127.812L667.273 151.971C654.625 154.553 643.285 161.489 635.226 171.572C627.167 181.654 622.9 194.245 623.17 207.15L624.45 271.466L610.88 351.153L610.499 365.628L597.18 379.683L599.642 393.892L589.679 397.861L584.804 418.052C582.942 420.382 570.647 435.922 570.536 440.255C570.519 440.905 570.983 441.546 571.995 442.27C579.953 447.964 624.432 460.301 644.451 452.884C665.774 444.99 749.346 459.816 750.188 459.967L750.622 460.045Z" fill="#6C63FF"/>
<path d="M696.479 116.989C724.15 116.989 746.582 94.5568 746.582 66.8853C746.582 39.2139 724.15 16.7817 696.479 16.7817C668.807 16.7817 646.375 39.2139 646.375 66.8853C646.375 94.5568 668.807 116.989 696.479 116.989Z" fill="#FFB8B8"/>
<path d="M690.367 117.659C698.126 117.78 705.881 117.238 713.548 116.039C721.147 114.494 738.147 102.036 742.886 94.5396C746.407 88.9697 748.659 80.272 749.928 73.9566C751.637 65.5995 751.572 56.9765 749.736 48.6462C747.901 40.3158 744.337 32.4638 739.274 25.5985C737.328 22.727 734.642 20.4347 731.501 18.9642C731.222 18.8553 730.936 18.7588 730.646 18.6763C726.068 17.4718 721.955 14.9266 718.834 11.3674C718.229 10.6475 717.573 9.97215 716.871 9.34655C713.344 6.36994 709.162 4.27031 704.668 3.21927C697.414 1.27786 686.916 3.20497 673.466 8.95261C666.709 11.8403 659.319 10.7953 653.634 9.56206C653.315 9.50047 652.986 9.52345 652.678 9.62871C652.371 9.73398 652.097 9.91786 651.883 10.1621C649.464 12.4328 646.275 13.7038 642.958 13.7197C640.926 13.809 638.794 16.6225 636.217 20.2915C635.632 21.1243 634.95 22.0963 634.458 22.6875L634.392 21.5517L633.242 22.8188C631.436 24.8103 630.162 27.2267 629.541 29.8428C628.919 32.459 628.97 35.1898 629.688 37.7811C630.406 40.3724 631.768 42.7399 633.648 44.663C635.527 46.5861 637.863 48.0024 640.437 48.7799C642.481 49.3237 644.575 49.6575 646.687 49.7759C647.966 49.891 649.289 50.01 650.557 50.23C654.627 51.0634 658.411 52.9378 661.54 55.6703C664.669 58.4027 667.036 61.8998 668.41 65.8202C668.735 66.7264 669.264 67.5458 669.955 68.2151C670.647 68.8845 671.484 69.3859 672.4 69.6807C673.317 69.9755 674.289 70.0557 675.241 69.9153C676.193 69.7748 677.101 69.4173 677.893 68.8705C679.214 67.8419 680.764 67.1481 682.411 66.8482C684.058 66.5482 685.753 66.6511 687.352 67.1481C688.733 67.9163 689.809 69.1361 690.398 70.6031C691.114 72.2374 692.3 73.6215 693.806 74.5787C698.955 77.2338 699.31 88.9958 697.461 98.8009C695.678 108.252 692.154 115.089 688.891 115.427C686.379 115.687 686.091 115.866 685.909 116.31L685.747 116.708L686.029 117.08C687.417 117.583 688.896 117.78 690.367 117.659V117.659Z" fill="#2F2E41"/>
<path d="M657.913 256.16L638.594 217.645C610.554 219.56 554.9 251.982 554.9 251.982L449.601 274.307C446.482 273.108 443.102 272.752 439.801 273.275C436.5 273.797 433.395 275.18 430.799 277.284C428.202 279.388 426.206 282.139 425.011 285.26C423.815 288.381 423.463 291.761 423.99 295.061C424.516 298.362 425.903 301.465 428.01 304.059C430.117 306.653 432.87 308.646 435.992 309.837C439.115 311.029 442.496 311.377 445.795 310.846C449.095 310.316 452.196 308.926 454.788 306.816L588.734 297.214L657.913 256.16Z" fill="#FFB8B8"/>
<path d="M650.122 262.484L700.576 224.99L709.463 192.963C711.185 186.669 711.112 180.019 709.253 173.764C707.394 167.51 703.822 161.9 698.942 157.568V157.568C692.287 151.742 683.668 148.659 674.827 148.944C665.986 149.23 657.584 152.861 651.318 159.105C632.332 178.056 610.676 204.495 615.328 222.828L615.375 223.014L650.122 262.484Z" fill="#6C63FF"/>
<path d="M587.664 362.772H452.664V380.772H587.664V362.772Z" fill="white"/>
<path d="M242.664 362.772H107.664V380.772H242.664V362.772Z" fill="white"/>
<path d="M258.43 276.21V361.914C258.431 363.006 258.865 364.054 259.637 364.826C260.409 365.598 261.457 366.032 262.549 366.033H389.553C390.645 366.032 391.693 365.598 392.465 364.826C393.237 364.054 393.671 363.006 393.672 361.914V276.21C393.67 275.119 393.235 274.073 392.463 273.302C391.691 272.531 390.644 272.097 389.553 272.096H262.549C261.458 272.097 260.411 272.531 259.639 273.302C258.867 274.073 258.432 275.119 258.43 276.21Z" fill="#3F3D56"/>
<path d="M261.408 277.277V360.857C261.409 361.441 261.641 362 262.054 362.413C262.467 362.825 263.026 363.058 263.61 363.059H388.495C389.079 363.058 389.638 362.825 390.051 362.413C390.463 362 390.695 361.441 390.696 360.857V277.277C390.696 276.693 390.465 276.132 390.052 275.719C389.639 275.305 389.079 275.072 388.495 275.071H263.61C263.025 275.072 262.465 275.305 262.053 275.719C261.64 276.132 261.408 276.693 261.408 277.277Z" fill="#6C63FF"/>
<path d="M255.772 378.629C256.004 378.92 256.3 379.156 256.637 379.317C256.973 379.478 257.342 379.56 257.715 379.559H393.707C394.079 379.558 394.446 379.475 394.782 379.315C395.117 379.154 395.413 378.921 395.647 378.633C395.882 378.344 396.049 378.006 396.136 377.645C396.224 377.283 396.229 376.907 396.153 376.543L394.042 366.516C393.955 366.107 393.766 365.726 393.494 365.409C393.222 365.091 392.875 364.847 392.484 364.698C392.201 364.587 391.9 364.53 391.596 364.53H259.818C259.514 364.53 259.213 364.587 258.93 364.698C258.539 364.847 258.192 365.091 257.92 365.409C257.647 365.726 257.459 366.107 257.372 366.516L255.261 376.543C255.186 376.907 255.192 377.283 255.281 377.643C255.369 378.004 255.537 378.341 255.772 378.629V378.629Z" fill="#2F2E41"/>
<path d="M386.931 368.85H390.143C390.412 368.85 390.631 368.631 390.631 368.361V366.825C390.631 366.555 390.412 366.337 390.143 366.337H386.931C386.661 366.337 386.442 366.555 386.442 366.825V368.361C386.442 368.631 386.661 368.85 386.931 368.85Z" fill="#3F3D56"/>
<path d="M378.554 368.85H381.766C382.035 368.85 382.254 368.631 382.254 368.361V366.825C382.254 366.555 382.035 366.337 381.766 366.337H378.554C378.284 366.337 378.065 366.555 378.065 366.825V368.361C378.065 368.631 378.284 368.85 378.554 368.85Z" fill="#3F3D56"/>
<path d="M370.177 368.85H373.389C373.658 368.85 373.877 368.631 373.877 368.361V366.825C373.877 366.555 373.658 366.337 373.389 366.337H370.177C369.907 366.337 369.688 366.555 369.688 366.825V368.361C369.688 368.631 369.907 368.85 370.177 368.85Z" fill="#3F3D56"/>
<path d="M361.8 368.85H365.012C365.281 368.85 365.5 368.631 365.5 368.361V366.825C365.5 366.555 365.281 366.337 365.012 366.337H361.8C361.53 366.337 361.312 366.555 361.312 366.825V368.361C361.312 368.631 361.53 368.85 361.8 368.85Z" fill="#3F3D56"/>
<path d="M353.423 368.85H356.635C356.905 368.85 357.123 368.631 357.123 368.361V366.825C357.123 366.555 356.905 366.337 356.635 366.337H353.423C353.153 366.337 352.935 366.555 352.935 366.825V368.361C352.935 368.631 353.153 368.85 353.423 368.85Z" fill="#3F3D56"/>
<path d="M345.046 368.85H348.258C348.527 368.85 348.746 368.631 348.746 368.361V366.825C348.746 366.555 348.527 366.337 348.258 366.337H345.046C344.776 366.337 344.558 366.555 344.558 366.825V368.361C344.558 368.631 344.776 368.85 345.046 368.85Z" fill="#3F3D56"/>
<path d="M336.669 368.85H339.881C340.151 368.85 340.369 368.631 340.369 368.361V366.825C340.369 366.555 340.151 366.337 339.881 366.337H336.669C336.399 366.337 336.181 366.555 336.181 366.825V368.361C336.181 368.631 336.399 368.85 336.669 368.85Z" fill="#3F3D56"/>
<path d="M328.292 368.85H331.504C331.774 368.85 331.992 368.631 331.992 368.361V366.825C331.992 366.555 331.774 366.337 331.504 366.337H328.292C328.022 366.337 327.804 366.555 327.804 366.825V368.361C327.804 368.631 328.022 368.85 328.292 368.85Z" fill="#3F3D56"/>
<path d="M319.915 368.85H323.127C323.397 368.85 323.615 368.631 323.615 368.361V366.825C323.615 366.555 323.397 366.337 323.127 366.337H319.915C319.645 366.337 319.427 366.555 319.427 366.825V368.361C319.427 368.631 319.645 368.85 319.915 368.85Z" fill="#3F3D56"/>
<path d="M311.538 368.85H314.75C315.02 368.85 315.238 368.631 315.238 368.361V366.825C315.238 366.555 315.02 366.337 314.75 366.337H311.538C311.268 366.337 311.05 366.555 311.05 366.825V368.361C311.05 368.631 311.268 368.85 311.538 368.85Z" fill="#3F3D56"/>
<path d="M303.161 368.85H306.373C306.643 368.85 306.861 368.631 306.861 368.361V366.825C306.861 366.555 306.643 366.337 306.373 366.337H303.161C302.891 366.337 302.673 366.555 302.673 366.825V368.361C302.673 368.631 302.891 368.85 303.161 368.85Z" fill="#3F3D56"/>
<path d="M294.784 368.85H297.996C298.266 368.85 298.484 368.631 298.484 368.361V366.825C298.484 366.555 298.266 366.337 297.996 366.337H294.784C294.514 366.337 294.296 366.555 294.296 366.825V368.361C294.296 368.631 294.514 368.85 294.784 368.85Z" fill="#3F3D56"/>
<path d="M286.407 368.85H289.619C289.889 368.85 290.107 368.631 290.107 368.361V366.825C290.107 366.555 289.889 366.337 289.619 366.337H286.407C286.138 366.337 285.919 366.555 285.919 366.825V368.361C285.919 368.631 286.138 368.85 286.407 368.85Z" fill="#3F3D56"/>
<path d="M278.03 368.85H281.242C281.512 368.85 281.73 368.631 281.73 368.361V366.825C281.73 366.555 281.512 366.337 281.242 366.337H278.03C277.761 366.337 277.542 366.555 277.542 366.825V368.361C277.542 368.631 277.761 368.85 278.03 368.85Z" fill="#3F3D56"/>
<path d="M269.653 368.85H272.865C273.135 368.85 273.354 368.631 273.354 368.361V366.825C273.354 366.555 273.135 366.337 272.865 366.337H269.653C269.384 366.337 269.165 366.555 269.165 366.825V368.361C269.165 368.631 269.384 368.85 269.653 368.85Z" fill="#3F3D56"/>
<path d="M261.276 368.85H264.488C264.758 368.85 264.977 368.631 264.977 368.361V366.825C264.977 366.555 264.758 366.337 264.488 366.337H261.276C261.007 366.337 260.788 366.555 260.788 366.825V368.361C260.788 368.631 261.007 368.85 261.276 368.85Z" fill="#3F3D56"/>
<path d="M387.03 373.038H390.242C390.512 373.038 390.73 372.82 390.73 372.55V371.013C390.73 370.744 390.512 370.525 390.242 370.525H387.03C386.761 370.525 386.542 370.744 386.542 371.013V372.55C386.542 372.82 386.761 373.038 387.03 373.038Z" fill="#3F3D56"/>
<path d="M378.653 373.038H381.865C382.135 373.038 382.354 372.82 382.354 372.55V371.013C382.354 370.744 382.135 370.525 381.865 370.525H378.653C378.384 370.525 378.165 370.744 378.165 371.013V372.55C378.165 372.82 378.384 373.038 378.653 373.038Z" fill="#3F3D56"/>
<path d="M370.276 373.038H373.488C373.758 373.038 373.977 372.82 373.977 372.55V371.013C373.977 370.744 373.758 370.525 373.488 370.525H370.276C370.007 370.525 369.788 370.744 369.788 371.013V372.55C369.788 372.82 370.007 373.038 370.276 373.038Z" fill="#3F3D56"/>
<path d="M361.899 373.038H365.111C365.381 373.038 365.6 372.82 365.6 372.55V371.013C365.6 370.744 365.381 370.525 365.111 370.525H361.899C361.63 370.525 361.411 370.744 361.411 371.013V372.55C361.411 372.82 361.63 373.038 361.899 373.038Z" fill="#3F3D56"/>
<path d="M353.522 373.038H356.734C357.004 373.038 357.223 372.82 357.223 372.55V371.013C357.223 370.744 357.004 370.525 356.734 370.525H353.522C353.253 370.525 353.034 370.744 353.034 371.013V372.55C353.034 372.82 353.253 373.038 353.522 373.038Z" fill="#3F3D56"/>
<path d="M345.145 373.038H348.358C348.627 373.038 348.846 372.82 348.846 372.55V371.013C348.846 370.744 348.627 370.525 348.358 370.525H345.145C344.876 370.525 344.657 370.744 344.657 371.013V372.55C344.657 372.82 344.876 373.038 345.145 373.038Z" fill="#3F3D56"/>
<path d="M336.768 373.038H339.981C340.25 373.038 340.469 372.82 340.469 372.55V371.013C340.469 370.744 340.25 370.525 339.981 370.525H336.768C336.499 370.525 336.28 370.744 336.28 371.013V372.55C336.28 372.82 336.499 373.038 336.768 373.038Z" fill="#3F3D56"/>
<path d="M328.391 373.038H331.604C331.873 373.038 332.092 372.82 332.092 372.55V371.013C332.092 370.744 331.873 370.525 331.604 370.525H328.391C328.122 370.525 327.903 370.744 327.903 371.013V372.55C327.903 372.82 328.122 373.038 328.391 373.038Z" fill="#3F3D56"/>
<path d="M320.015 373.038H323.227C323.496 373.038 323.715 372.82 323.715 372.55V371.013C323.715 370.744 323.496 370.525 323.227 370.525H320.015C319.745 370.525 319.526 370.744 319.526 371.013V372.55C319.526 372.82 319.745 373.038 320.015 373.038Z" fill="#3F3D56"/>
<path d="M311.638 373.038H314.85C315.119 373.038 315.338 372.82 315.338 372.55V371.013C315.338 370.744 315.119 370.525 314.85 370.525H311.638C311.368 370.525 311.149 370.744 311.149 371.013V372.55C311.149 372.82 311.368 373.038 311.638 373.038Z" fill="#3F3D56"/>
<path d="M303.261 373.038H306.473C306.742 373.038 306.961 372.82 306.961 372.55V371.013C306.961 370.744 306.742 370.525 306.473 370.525H303.261C302.991 370.525 302.772 370.744 302.772 371.013V372.55C302.772 372.82 302.991 373.038 303.261 373.038Z" fill="#3F3D56"/>
<path d="M294.884 373.038H298.096C298.365 373.038 298.584 372.82 298.584 372.55V371.013C298.584 370.744 298.365 370.525 298.096 370.525H294.884C294.614 370.525 294.395 370.744 294.395 371.013V372.55C294.395 372.82 294.614 373.038 294.884 373.038Z" fill="#3F3D56"/>
<path d="M286.507 373.038H289.719C289.988 373.038 290.207 372.82 290.207 372.55V371.013C290.207 370.744 289.988 370.525 289.719 370.525H286.507C286.237 370.525 286.019 370.744 286.019 371.013V372.55C286.019 372.82 286.237 373.038 286.507 373.038Z" fill="#3F3D56"/>
<path d="M278.13 373.038H281.342C281.612 373.038 281.83 372.82 281.83 372.55V371.013C281.83 370.744 281.612 370.525 281.342 370.525H278.13C277.86 370.525 277.642 370.744 277.642 371.013V372.55C277.642 372.82 277.86 373.038 278.13 373.038Z" fill="#3F3D56"/>
<path d="M269.753 373.038H272.965C273.235 373.038 273.453 372.82 273.453 372.55V371.013C273.453 370.744 273.235 370.525 272.965 370.525H269.753C269.483 370.525 269.265 370.744 269.265 371.013V372.55C269.265 372.82 269.483 373.038 269.753 373.038Z" fill="#3F3D56"/>
<path d="M261.376 373.038H264.588C264.858 373.038 265.076 372.82 265.076 372.55V371.013C265.076 370.744 264.858 370.525 264.588 370.525H261.376C261.106 370.525 260.888 370.744 260.888 371.013V372.55C260.888 372.82 261.106 373.038 261.376 373.038Z" fill="#3F3D56"/>
<path d="M317.502 378.064H350.033C350.303 378.064 350.521 377.845 350.521 377.576V376.039C350.521 375.769 350.303 375.551 350.033 375.551H317.502C317.232 375.551 317.014 375.769 317.014 376.039V377.576C317.014 377.845 317.232 378.064 317.502 378.064Z" fill="#3F3D56"/>
</g>
<defs>
<clipPath id="clip0_1333_59">
<rect width="833.222" height="633.11" fill="white"/>
</clipPath>
</defs>
</svg>
