<svg width="40" height="40" viewBox="0 0 40 40" fill="none" xmlns="http://www.w3.org/2000/svg">
<circle cx="20" cy="20" r="19.5" fill="black" stroke="#808080"/>
<path d="M10.5237 23.463C6.69826 21.3157 7.45592 15.5565 11.7019 14.5067L24.1348 11.4327C27.6869 10.5545 30.881 13.8394 29.9416 17.4045L27.6338 26.1618C26.8291 29.2156 23.39 30.685 20.6488 29.1463L10.5237 23.463Z" fill="#DCCDE4"/>
<path d="M10.1871 13.5618C10.1871 13.0458 10.6011 12.6274 11.1118 12.6274H27.7362C28.2469 12.6274 28.6609 13.0458 28.6609 13.5618V26.5239C28.6609 27.04 28.2469 27.4583 27.7362 27.4583H11.1118C10.6011 27.4583 10.1871 27.04 10.1871 26.5239V13.5618Z" fill="#C5ACD2"/>
<path fill-rule="evenodd" clip-rule="evenodd" d="M10.0072 13.6892C10.0072 13.1028 10.4827 12.6274 11.0693 12.6274H27.7776C28.3641 12.6274 28.8397 13.1028 28.8397 13.6892V26.5774C28.8397 27.1638 28.3641 27.6392 27.7776 27.6392H11.0693C10.4827 27.6392 10.0072 27.1638 10.0072 26.5774V13.6892ZM11.0693 12.8929C10.6294 12.8929 10.2727 13.2494 10.2727 13.6892V26.5774C10.2727 27.0172 10.6294 27.3737 11.0693 27.3737H27.7776C28.2175 27.3737 28.5741 27.0172 28.5741 26.5774V13.6892C28.5741 13.2494 28.2175 12.8929 27.7776 12.8929H11.0693Z" fill="#41197F"/>
<path fill-rule="evenodd" clip-rule="evenodd" d="M28.6609 16.5155C28.6609 16.5654 28.6019 16.6059 28.5292 16.6059H10.3188C10.2461 16.6059 10.1871 16.5654 10.1871 16.5155C10.1871 16.4655 10.2461 16.425 10.3188 16.425H28.5292C28.6019 16.425 28.6609 16.4655 28.6609 16.5155Z" fill="#41197F"/>
<path d="M13.4154 20.8063C13.4154 20.5844 13.5922 20.4045 13.8102 20.4045H24.8581C25.0762 20.4045 25.253 20.5844 25.253 20.8063V23.2583C25.253 23.4802 25.0762 23.6601 24.8581 23.6601H13.8102C13.5922 23.6601 13.4154 23.4802 13.4154 23.2583V20.8063Z" fill="#41197F"/>
<path d="M15.3881 14.7065C15.3881 15.156 15.0669 15.5204 14.6707 15.5204C14.2745 15.5204 13.9532 15.156 13.9532 14.7065C13.9532 14.257 14.2745 13.8926 14.6707 13.8926C15.0669 13.8926 15.3881 14.257 15.3881 14.7065Z" fill="#41197F"/>
<path fill-rule="evenodd" clip-rule="evenodd" d="M12.4288 15.2393C12.7206 15.2393 12.9572 15.0007 12.9572 14.7065C12.9572 14.4122 12.7206 14.1737 12.4288 14.1737C12.137 14.1737 11.9004 14.4122 11.9004 14.7065C11.9004 15.0007 12.137 15.2393 12.4288 15.2393ZM12.4288 15.5204C12.8746 15.5204 13.2359 15.156 13.2359 14.7065C13.2359 14.257 12.8746 13.8926 12.4288 13.8926C11.9831 13.8926 11.6217 14.257 11.6217 14.7065C11.6217 15.156 11.9831 15.5204 12.4288 15.5204Z" fill="#41197F"/>
<path d="M17.8992 14.7065C17.8992 15.156 17.578 15.5204 17.1818 15.5204C16.7856 15.5204 16.4644 15.156 16.4644 14.7065C16.4644 14.257 16.7856 13.8926 17.1818 13.8926C17.578 13.8926 17.8992 14.257 17.8992 14.7065Z" fill="#41197F"/>
</svg>
