<svg width="22" height="23" viewBox="0 0 22 23" fill="none" xmlns="http://www.w3.org/2000/svg">
<path d="M8 18.9994C3 20.4994 3 16.4994 1 15.9994M15 21.9994V18.1294C15.0375 17.6526 14.9731 17.1733 14.811 16.7232C14.6489 16.2732 14.3929 15.8629 14.06 15.5195C17.2 15.1695 20.5 13.9794 20.5 8.51945C20.4997 7.12328 19.9627 5.78065 19 4.76945C19.4559 3.54796 19.4236 2.1978 18.91 0.999449C18.91 0.999449 17.73 0.649449 15 2.47945C12.708 1.85827 10.292 1.85827 8 2.47945C5.27 0.649449 4.09 0.999449 4.09 0.999449C3.57638 2.1978 3.54414 3.54796 4 4.76945C3.03013 5.78815 2.49252 7.14291 2.5 8.54945C2.5 13.9694 5.8 15.1594 8.94 15.5494C8.611 15.8894 8.35726 16.2949 8.19531 16.7394C8.03335 17.1839 7.96681 17.6575 8 18.1294V21.9994" stroke="white" stroke-width="2" stroke-linecap="round" stroke-linejoin="round"/>
</svg>
