<svg width="21" height="21" viewBox="0 0 21 21" fill="none" xmlns="http://www.w3.org/2000/svg">
<g filter="url(#filter0_i_1005_15)">
<path d="M10.5 1.75C15.3248 1.75 19.25 5.67525 19.25 10.5C19.25 15.3247 15.3248 19.25 10.5 19.25C5.67525 19.25 1.75 15.3247 1.75 10.5C1.75 5.67525 5.67525 1.75 10.5 1.75ZM10.5 0C4.70137 0 0 4.70138 0 10.5C0 16.2986 4.70137 21 10.5 21C16.2986 21 21 16.2986 21 10.5C21 4.70138 16.2986 0 10.5 0ZM10.5 5.25C7.60112 5.25 5.25 7.60025 5.25 10.5C5.25 12.8196 6.75413 14.7875 8.841 15.4814C9.1035 15.5304 9.1875 15.3676 9.1875 15.2285V14.2511C7.72713 14.5687 7.42263 13.6325 7.42263 13.6325C7.18463 13.0261 6.83988 12.8642 6.83988 12.8642C6.36388 12.5379 6.87575 12.5449 6.87575 12.5449C7.40338 12.5816 7.68075 13.0865 7.68075 13.0865C8.14888 13.8889 8.90838 13.657 9.2085 13.5231C9.25575 13.1836 9.39138 12.9526 9.54188 12.8214C8.3755 12.6884 7.1505 12.2377 7.1505 10.227C7.1505 9.65387 7.35525 9.18575 7.69125 8.81825C7.637 8.68437 7.45675 8.14975 7.742 7.427C7.742 7.427 8.183 7.28612 9.18575 7.96512C9.60488 7.84875 10.0538 7.791 10.5 7.78837C10.9463 7.79012 11.3951 7.84875 11.8151 7.96512C12.8179 7.28612 13.2571 7.427 13.2571 7.427C13.5433 8.14975 13.363 8.68437 13.3096 8.8165C13.6465 9.184 13.8495 9.65212 13.8495 10.2252C13.8495 12.2421 12.621 12.6858 11.452 12.8153C11.641 12.978 11.8125 13.2974 11.8125 13.7874V15.2276C11.8125 15.3676 11.8965 15.5312 12.1625 15.4796C14.2476 14.7857 15.75 12.8187 15.75 10.5C15.75 7.60025 13.3989 5.25 10.5 5.25Z" fill="#FEFEFE"/>
</g>
<defs>
<filter id="filter0_i_1005_15" x="0" y="0" width="21" height="25" filterUnits="userSpaceOnUse" color-interpolation-filters="sRGB">
<feFlood flood-opacity="0" result="BackgroundImageFix"/>
<feBlend mode="normal" in="SourceGraphic" in2="BackgroundImageFix" result="shape"/>
<feColorMatrix in="SourceAlpha" type="matrix" values="0 0 0 0 0 0 0 0 0 0 0 0 0 0 0 0 0 0 127 0" result="hardAlpha"/>
<feOffset dy="4"/>
<feGaussianBlur stdDeviation="2"/>
<feComposite in2="hardAlpha" operator="arithmetic" k2="-1" k3="1"/>
<feColorMatrix type="matrix" values="0 0 0 0 0 0 0 0 0 0 0 0 0 0 0 0 0 0 0.25 0"/>
<feBlend mode="normal" in2="shape" result="effect1_innerShadow_1005_15"/>
</filter>
</defs>
</svg>
