<svg width="80" height="77" viewBox="0 0 80 77" fill="none" xmlns="http://www.w3.org/2000/svg">
<ellipse cx="39.8509" cy="38.5" rx="39.8509" ry="38.5" fill="#272B35"/>
<g filter="url(#filter0_i_981_2)">
<path d="M40 15.5833C52.4065 15.5833 62.5 25.8638 62.5 38.5C62.5 51.1362 52.4065 61.4167 40 61.4167C27.5935 61.4167 17.5 51.1362 17.5 38.5C17.5 25.8638 27.5935 15.5833 40 15.5833ZM40 11C25.0892 11 13 23.3131 13 38.5C13 53.6869 25.0892 66 40 66C54.9108 66 67 53.6869 67 38.5C67 23.3131 54.9108 11 40 11ZM40 24.75C32.5457 24.75 26.5 30.9054 26.5 38.5C26.5 44.5752 30.3678 49.7292 35.734 51.5465C36.409 51.6748 36.625 51.2485 36.625 50.8842V48.3244C32.8698 49.1562 32.0868 46.7042 32.0868 46.7042C31.4748 45.116 30.5883 44.6921 30.5883 44.6921C29.3643 43.8373 30.6805 43.8556 30.6805 43.8556C32.0373 43.9519 32.7505 45.2742 32.7505 45.2742C33.9543 47.3756 35.9073 46.7683 36.679 46.4177C36.8005 45.5285 37.1493 44.9235 37.5363 44.5798C34.537 44.2315 31.387 43.0512 31.387 37.785C31.387 36.284 31.9135 35.0579 32.7775 34.0954C32.638 33.7448 32.1745 32.3446 32.908 30.4517C32.908 30.4517 34.042 30.0827 36.6205 31.861C37.6983 31.5562 38.8525 31.405 40 31.3981C41.1475 31.4027 42.3018 31.5562 43.3818 31.861C45.9603 30.0827 47.0898 30.4517 47.0898 30.4517C47.8255 32.3446 47.362 33.7448 47.2248 34.0908C48.091 35.0533 48.613 36.2794 48.613 37.7804C48.613 43.0627 45.454 44.2246 42.448 44.5638C42.934 44.99 43.375 45.8265 43.375 47.1098V50.8819C43.375 51.2485 43.591 51.6771 44.275 51.5419C49.6367 49.7246 53.5 44.5729 53.5 38.5C53.5 30.9054 47.4543 24.75 40 24.75Z" fill="#FEFEFE"/>
</g>
<defs>
<filter id="filter0_i_981_2" x="13" y="11" width="54" height="59" filterUnits="userSpaceOnUse" color-interpolation-filters="sRGB">
<feFlood flood-opacity="0" result="BackgroundImageFix"/>
<feBlend mode="normal" in="SourceGraphic" in2="BackgroundImageFix" result="shape"/>
<feColorMatrix in="SourceAlpha" type="matrix" values="0 0 0 0 0 0 0 0 0 0 0 0 0 0 0 0 0 0 127 0" result="hardAlpha"/>
<feOffset dy="4"/>
<feGaussianBlur stdDeviation="2"/>
<feComposite in2="hardAlpha" operator="arithmetic" k2="-1" k3="1"/>
<feColorMatrix type="matrix" values="0 0 0 0 0 0 0 0 0 0 0 0 0 0 0 0 0 0 0.25 0"/>
<feBlend mode="normal" in2="shape" result="effect1_innerShadow_981_2"/>
</filter>
</defs>
</svg>
