<svg width="20" height="21" viewBox="0 0 20 21" fill="none" xmlns="http://www.w3.org/2000/svg">
<path d="M13.5 7C14.9587 7 16.3576 7.63214 17.3891 8.75736C18.4205 9.88258 19 11.4087 19 13V20H15.3333V13C15.3333 12.4696 15.1402 11.9609 14.7964 11.5858C14.4525 11.2107 13.9862 11 13.5 11C13.0138 11 12.5475 11.2107 12.2036 11.5858C11.8598 11.9609 11.6667 12.4696 11.6667 13V20H8V13C8 11.4087 8.57946 9.88258 9.61091 8.75736C10.6424 7.63214 12.0413 7 13.5 7V7Z" stroke="white" stroke-linecap="round" stroke-linejoin="round"/>
<path d="M5 8H1V20H5V8Z" stroke="white" stroke-linecap="round" stroke-linejoin="round"/>
<path d="M3 5C4.10457 5 5 4.10457 5 3C5 1.89543 4.10457 1 3 1C1.89543 1 1 1.89543 1 3C1 4.10457 1.89543 5 3 5Z" stroke="white" stroke-linecap="round" stroke-linejoin="round"/>
</svg>
