<svg width="96" height="18" viewBox="0 0 96 18" fill="none" xmlns="http://www.w3.org/2000/svg">
<path d="M24.724 16.042C24.568 16.042 24.4424 15.9943 24.347 15.899C24.2604 15.8123 24.217 15.691 24.217 15.535V9.399C24.2257 8.723 24.386 8.11633 24.698 7.579C25.0187 7.033 25.4477 6.604 25.985 6.292C26.531 5.98 27.142 5.824 27.818 5.824C28.5114 5.824 29.131 5.98433 29.677 6.305C30.223 6.617 30.652 7.046 30.964 7.592C31.2847 8.138 31.445 8.75767 31.445 9.451C31.445 10.1357 31.289 10.751 30.977 11.297C30.6737 11.843 30.2577 12.2763 29.729 12.597C29.2004 12.909 28.6024 13.065 27.935 13.065C27.3544 13.065 26.8257 12.9437 26.349 12.701C25.881 12.4497 25.504 12.1203 25.218 11.713V15.535C25.218 15.691 25.1704 15.8123 25.075 15.899C24.9884 15.9943 24.8714 16.042 24.724 16.042ZM27.818 12.155C28.3207 12.155 28.7714 12.038 29.17 11.804C29.5687 11.57 29.8807 11.2493 30.106 10.842C30.34 10.426 30.457 9.96233 30.457 9.451C30.457 8.931 30.34 8.46733 30.106 8.06C29.8807 7.65267 29.5687 7.332 29.17 7.098C28.7714 6.85533 28.3207 6.734 27.818 6.734C27.324 6.734 26.8777 6.85533 26.479 7.098C26.0804 7.332 25.7684 7.65267 25.543 8.06C25.3177 8.46733 25.205 8.931 25.205 9.451C25.205 9.96233 25.3177 10.426 25.543 10.842C25.7684 11.2493 26.0804 11.57 26.479 11.804C26.8777 12.038 27.324 12.155 27.818 12.155ZM36.4504 13.065C35.7571 13.065 35.1374 12.909 34.5914 12.597C34.0454 12.285 33.6164 11.856 33.3044 11.31C32.9924 10.764 32.8364 10.1443 32.8364 9.451C32.8364 8.749 32.9924 8.125 33.3044 7.579C33.6164 7.033 34.0454 6.604 34.5914 6.292C35.1374 5.98 35.7571 5.824 36.4504 5.824C37.1438 5.824 37.7591 5.98 38.2964 6.292C38.8424 6.604 39.2714 7.033 39.5834 7.579C39.8954 8.125 40.0558 8.749 40.0644 9.451C40.0644 10.1443 39.9041 10.764 39.5834 11.31C39.2714 11.856 38.8424 12.285 38.2964 12.597C37.7591 12.909 37.1438 13.065 36.4504 13.065ZM36.4504 12.155C36.9531 12.155 37.4038 12.038 37.8024 11.804C38.2011 11.57 38.5131 11.2493 38.7384 10.842C38.9638 10.4347 39.0764 9.971 39.0764 9.451C39.0764 8.931 38.9638 8.46733 38.7384 8.06C38.5131 7.644 38.2011 7.319 37.8024 7.085C37.4038 6.851 36.9531 6.734 36.4504 6.734C35.9478 6.734 35.4971 6.851 35.0984 7.085C34.6998 7.319 34.3834 7.644 34.1494 8.06C33.9241 8.46733 33.8114 8.931 33.8114 9.451C33.8114 9.971 33.9241 10.4347 34.1494 10.842C34.3834 11.2493 34.6998 11.57 35.0984 11.804C35.4971 12.038 35.9478 12.155 36.4504 12.155ZM42.2323 8.619C42.2583 8.08167 42.3969 7.60067 42.6483 7.176C42.9083 6.75133 43.2419 6.41767 43.6493 6.175C44.0653 5.93233 44.5246 5.811 45.0273 5.811C45.4259 5.811 45.7336 5.86733 45.9503 5.98C46.1669 6.09267 46.2493 6.25733 46.1973 6.474C46.1626 6.604 46.1019 6.69067 46.0153 6.734C45.9373 6.77733 45.8376 6.79467 45.7163 6.786C45.6036 6.77733 45.4736 6.76867 45.3263 6.76C44.8409 6.71667 44.4076 6.76867 44.0263 6.916C43.6536 7.05467 43.3546 7.27133 43.1293 7.566C42.9126 7.86067 42.8043 8.21167 42.8043 8.619H42.2323ZM42.3103 13C42.1543 13 42.0329 12.9567 41.9463 12.87C41.8596 12.7833 41.8163 12.662 41.8163 12.506V6.383C41.8163 6.227 41.8596 6.10567 41.9463 6.019C42.0329 5.93233 42.1543 5.889 42.3103 5.889C42.4663 5.889 42.5876 5.93233 42.6743 6.019C42.7609 6.10567 42.8043 6.227 42.8043 6.383V12.506C42.8043 12.662 42.7609 12.7833 42.6743 12.87C42.5876 12.9567 42.4663 13 42.3103 13ZM50.3574 13C49.898 13 49.4864 12.8917 49.1224 12.675C48.767 12.4583 48.4854 12.1637 48.2774 11.791C48.0694 11.4097 47.9654 10.9763 47.9654 10.491V4.134C47.9654 3.98667 48.0087 3.86533 48.0954 3.77C48.1907 3.67467 48.312 3.627 48.4594 3.627C48.6067 3.627 48.728 3.67467 48.8234 3.77C48.9187 3.86533 48.9664 3.98667 48.9664 4.134V10.491C48.9664 10.933 49.0964 11.297 49.3564 11.583C49.6164 11.8603 49.95 11.999 50.3574 11.999H50.7084C50.847 11.999 50.9597 12.0467 51.0464 12.142C51.133 12.2373 51.1764 12.3587 51.1764 12.506C51.1764 12.6533 51.1244 12.7747 51.0204 12.87C50.9164 12.9567 50.7864 13 50.6304 13H50.3574ZM47.1204 7.02C46.9904 7.02 46.882 6.981 46.7954 6.903C46.7087 6.81633 46.6654 6.71233 46.6654 6.591C46.6654 6.461 46.7087 6.357 46.7954 6.279C46.882 6.19233 46.9904 6.149 47.1204 6.149H50.4354C50.5654 6.149 50.6737 6.19233 50.7604 6.279C50.847 6.357 50.8904 6.461 50.8904 6.591C50.8904 6.71233 50.847 6.81633 50.7604 6.903C50.6737 6.981 50.5654 7.02 50.4354 7.02H47.1204ZM53.3258 13C53.1698 13 53.0442 12.9567 52.9488 12.87C52.8622 12.7747 52.8188 12.649 52.8188 12.493V6.396C52.8188 6.24 52.8622 6.11867 52.9488 6.032C53.0442 5.93667 53.1698 5.889 53.3258 5.889C53.4732 5.889 53.5902 5.93667 53.6768 6.032C53.7722 6.11867 53.8198 6.24 53.8198 6.396V12.493C53.8198 12.649 53.7722 12.7747 53.6768 12.87C53.5902 12.9567 53.4732 13 53.3258 13ZM53.3128 4.537C53.1222 4.537 52.9575 4.46767 52.8188 4.329C52.6802 4.19033 52.6108 4.02133 52.6108 3.822C52.6108 3.60533 52.6802 3.43633 52.8188 3.315C52.9662 3.185 53.1352 3.12 53.3258 3.12C53.5078 3.12 53.6682 3.185 53.8068 3.315C53.9542 3.43633 54.0278 3.60533 54.0278 3.822C54.0278 4.02133 53.9585 4.19033 53.8198 4.329C53.6812 4.46767 53.5122 4.537 53.3128 4.537ZM57.0577 13C56.9277 13 56.815 12.9567 56.7197 12.87C56.6243 12.7747 56.5767 12.649 56.5767 12.493V5.902C56.5767 5.29533 56.6807 4.76233 56.8887 4.303C57.0967 3.84367 57.4043 3.48833 57.8117 3.237C58.219 2.977 58.7173 2.847 59.3067 2.847C59.454 2.847 59.5753 2.89033 59.6707 2.977C59.766 3.06367 59.8137 3.172 59.8137 3.302C59.8137 3.432 59.766 3.54033 59.6707 3.627C59.5753 3.71367 59.454 3.757 59.3067 3.757C58.9167 3.757 58.5917 3.848 58.3317 4.03C58.0803 4.20333 57.8897 4.45033 57.7597 4.771C57.6383 5.083 57.5777 5.44267 57.5777 5.85V12.493C57.5777 12.649 57.53 12.7747 57.4347 12.87C57.348 12.9567 57.2223 13 57.0577 13ZM55.7447 7.02C55.606 7.02 55.4933 6.981 55.4067 6.903C55.3287 6.81633 55.2897 6.71233 55.2897 6.591C55.2897 6.461 55.3287 6.357 55.4067 6.279C55.4933 6.19233 55.606 6.149 55.7447 6.149H59.1377C59.2763 6.149 59.3847 6.19233 59.4627 6.279C59.5493 6.357 59.5927 6.461 59.5927 6.591C59.5927 6.71233 59.5493 6.81633 59.4627 6.903C59.3847 6.981 59.2763 7.02 59.1377 7.02H55.7447ZM63.7225 13.065C63.0292 13.065 62.4095 12.909 61.8635 12.597C61.3175 12.285 60.8885 11.856 60.5765 11.31C60.2645 10.764 60.1085 10.1443 60.1085 9.451C60.1085 8.749 60.2645 8.125 60.5765 7.579C60.8885 7.033 61.3175 6.604 61.8635 6.292C62.4095 5.98 63.0292 5.824 63.7225 5.824C64.4158 5.824 65.0312 5.98 65.5685 6.292C66.1145 6.604 66.5435 7.033 66.8555 7.579C67.1675 8.125 67.3278 8.749 67.3365 9.451C67.3365 10.1443 67.1762 10.764 66.8555 11.31C66.5435 11.856 66.1145 12.285 65.5685 12.597C65.0312 12.909 64.4158 13.065 63.7225 13.065ZM63.7225 12.155C64.2252 12.155 64.6758 12.038 65.0745 11.804C65.4732 11.57 65.7852 11.2493 66.0105 10.842C66.2358 10.4347 66.3485 9.971 66.3485 9.451C66.3485 8.931 66.2358 8.46733 66.0105 8.06C65.7852 7.644 65.4732 7.319 65.0745 7.085C64.6758 6.851 64.2252 6.734 63.7225 6.734C63.2198 6.734 62.7692 6.851 62.3705 7.085C61.9718 7.319 61.6555 7.644 61.4215 8.06C61.1962 8.46733 61.0835 8.931 61.0835 9.451C61.0835 9.971 61.1962 10.4347 61.4215 10.842C61.6555 11.2493 61.9718 11.57 62.3705 11.804C62.7692 12.038 63.2198 12.155 63.7225 12.155ZM63.6315 4.81C63.4928 4.81 63.3715 4.76233 63.2675 4.667C63.1722 4.563 63.1245 4.44167 63.1245 4.303C63.1245 4.16433 63.1635 4.05167 63.2415 3.965L64.7105 2.496C64.8058 2.40067 64.9228 2.353 65.0615 2.353C65.2088 2.353 65.3302 2.405 65.4255 2.509C65.5208 2.60433 65.5685 2.72567 65.5685 2.873C65.5685 2.93367 65.5555 2.99433 65.5295 3.055C65.5122 3.11567 65.4775 3.16767 65.4255 3.211L63.9695 4.68C63.8828 4.76667 63.7702 4.81 63.6315 4.81ZM70.6223 13C70.2757 13 69.9637 12.9047 69.6863 12.714C69.4177 12.5233 69.2053 12.259 69.0493 11.921C68.902 11.583 68.8283 11.193 68.8283 10.751V3.341C68.8283 3.19367 68.8717 3.07667 68.9583 2.99C69.0537 2.89467 69.175 2.847 69.3223 2.847C69.4697 2.847 69.5867 2.89467 69.6733 2.99C69.7687 3.07667 69.8163 3.19367 69.8163 3.341V10.751C69.8163 11.1237 69.89 11.427 70.0373 11.661C70.1933 11.895 70.3883 12.012 70.6223 12.012H70.9473C71.0773 12.012 71.1813 12.0597 71.2593 12.155C71.3373 12.2417 71.3763 12.3587 71.3763 12.506C71.3763 12.6533 71.32 12.7747 71.2073 12.87C71.1033 12.9567 70.9647 13 70.7913 13H70.6223ZM73.2773 13C73.1213 13 72.9956 12.9567 72.9003 12.87C72.8136 12.7747 72.7703 12.649 72.7703 12.493V6.396C72.7703 6.24 72.8136 6.11867 72.9003 6.032C72.9956 5.93667 73.1213 5.889 73.2773 5.889C73.4246 5.889 73.5416 5.93667 73.6283 6.032C73.7236 6.11867 73.7713 6.24 73.7713 6.396V12.493C73.7713 12.649 73.7236 12.7747 73.6283 12.87C73.5416 12.9567 73.4246 13 73.2773 13ZM73.2643 4.537C73.0736 4.537 72.909 4.46767 72.7703 4.329C72.6316 4.19033 72.5623 4.02133 72.5623 3.822C72.5623 3.60533 72.6316 3.43633 72.7703 3.315C72.9176 3.185 73.0866 3.12 73.2773 3.12C73.4593 3.12 73.6196 3.185 73.7583 3.315C73.9056 3.43633 73.9793 3.60533 73.9793 3.822C73.9793 4.02133 73.91 4.19033 73.7713 4.329C73.6326 4.46767 73.4636 4.537 73.2643 4.537ZM79.3621 13.065C78.6688 13.065 78.0491 12.909 77.5031 12.597C76.9571 12.285 76.5281 11.856 76.2161 11.31C75.9041 10.764 75.7481 10.1443 75.7481 9.451C75.7481 8.749 75.9041 8.125 76.2161 7.579C76.5281 7.033 76.9571 6.604 77.5031 6.292C78.0491 5.98 78.6688 5.824 79.3621 5.824C80.0554 5.824 80.6708 5.98 81.2081 6.292C81.7541 6.604 82.1831 7.033 82.4951 7.579C82.8071 8.125 82.9674 8.749 82.9761 9.451C82.9761 10.1443 82.8158 10.764 82.4951 11.31C82.1831 11.856 81.7541 12.285 81.2081 12.597C80.6708 12.909 80.0554 13.065 79.3621 13.065ZM79.3621 12.155C79.8648 12.155 80.3154 12.038 80.7141 11.804C81.1128 11.57 81.4248 11.2493 81.6501 10.842C81.8754 10.4347 81.9881 9.971 81.9881 9.451C81.9881 8.931 81.8754 8.46733 81.6501 8.06C81.4248 7.644 81.1128 7.319 80.7141 7.085C80.3154 6.851 79.8648 6.734 79.3621 6.734C78.8594 6.734 78.4088 6.851 78.0101 7.085C77.6114 7.319 77.2951 7.644 77.0611 8.06C76.8358 8.46733 76.7231 8.931 76.7231 9.451C76.7231 9.971 76.8358 10.4347 77.0611 10.842C77.2951 11.2493 77.6114 11.57 78.0101 11.804C78.4088 12.038 78.8594 12.155 79.3621 12.155Z" fill="white"/>
<path fill-rule="evenodd" clip-rule="evenodd" d="M4.2895 6.56026V16.4367L2.6226e-05 12.2777V2.40065L0 2.40063H2.6226e-05V2.3999L0.000771692 2.40063H10.1875L14.4769 6.56026H4.2895Z" fill="#6C63FF"/>
<path fill-rule="evenodd" clip-rule="evenodd" d="M4.28948 16.5439H14.4769L11.486 13.6436L14.4769 16.5435L14.4769 6.6657L10.1874 2.50664L10.1874 12.3843L2.19345e-05 12.3843L4.28948 16.5439Z" fill="#07B36C"/>
</svg>
