<svg width="60" height="60" viewBox="0 0 60 60" fill="none" xmlns="http://www.w3.org/2000/svg">
<path d="M0 6C0 2.68629 2.68629 0 6 0H54C57.3137 0 60 2.68629 60 6V54C60 57.3137 57.3137 60 54 60H0V6Z" fill="#4D46B8"/>
<path d="M12 21.3123V23.3307H18.4505V41.657H23.0278V23.3307H29.4783V21.3494C29.4783 20.235 29.4783 19.3311 29.4287 19.3063C29.4287 19.2691 25.4964 19.2568 20.7205 19.2568L12.0372 19.2939V21.3247L12 21.3123V21.3123ZM40.9899 19.2444C42.2552 19.5416 43.2227 20.1112 44.0911 21.0151C44.55 21.5104 45.2323 22.3772 45.2819 22.6001C45.2819 22.6744 43.1359 24.1231 41.8334 24.928C41.7838 24.9652 41.5853 24.7547 41.3868 24.4327C40.7418 23.5164 40.0843 23.1202 39.0547 23.0459C37.5662 22.9468 36.5738 23.7269 36.5738 25.0271C36.5738 25.4233 36.6482 25.6462 36.7971 25.9682C37.132 26.6492 37.7522 27.0578 39.675 27.8999C43.2227 29.4229 44.7609 30.4259 45.6913 31.8623C46.7457 33.4721 46.9814 35.9981 46.2743 37.8927C45.4804 39.9606 43.5453 41.3598 40.779 41.818C39.9107 41.9666 37.9259 41.9418 36.9956 41.7809C35.0108 41.4094 33.1129 40.4188 31.9468 39.1433C31.4878 38.648 30.6071 37.3231 30.6567 37.2364L31.1281 36.9392L32.9888 35.8619L34.3906 35.0447L34.7131 35.4781C35.1224 36.122 36.0404 36.9888 36.5738 37.2859C38.1864 38.1156 40.3448 38.0041 41.4116 37.0383C41.8706 36.6173 42.0691 36.1715 42.0691 35.5524C42.0691 34.9828 41.9823 34.7227 41.697 34.2893C41.3 33.7445 40.5061 33.2987 38.2732 32.3081C35.7055 31.2184 34.6138 30.525 33.5967 29.4601C33.0136 28.8162 32.4802 27.8132 32.2321 26.9835C32.0461 26.2654 31.984 24.507 32.1577 23.8012C32.6911 21.3247 34.5642 19.5911 37.2436 19.0958C38.112 18.9224 40.1588 18.9967 41.0147 19.2196L40.9899 19.2444V19.2444Z" fill="white"/>
</svg>
