<svg width="30" height="30" viewBox="0 0 30 30" fill="none" xmlns="http://www.w3.org/2000/svg">
<path d="M14.208 0.0173493C6.28501 0.394596 0.0326744 6.9929 0.0567097 14.9248C0.0640279 17.3407 0.647261 19.621 1.67611 21.6358L0.0964576 29.3036C0.0110067 29.7184 0.385096 30.0816 0.79714 29.984L8.31072 28.2039C10.2411 29.1654 12.4093 29.7208 14.704 29.7558C22.802 29.8795 29.5543 23.4495 29.8067 15.3545C30.0773 6.67714 22.9156 -0.397349 14.208 0.0173493ZM23.1733 23.1167C20.9729 25.3171 18.0472 26.5289 14.9354 26.5289C13.1133 26.5289 11.3689 26.1201 9.75033 25.3139L8.70396 24.7926L4.09737 25.8841L5.06703 21.177L4.55153 20.1675C3.71129 18.5219 3.28526 16.7425 3.28526 14.8788C3.28526 11.7669 4.49707 8.84132 6.69748 6.64083C8.87824 4.46008 11.8516 3.22854 14.9356 3.22854C18.0475 3.22861 20.9729 4.44042 23.1734 6.64076C25.3738 8.84117 26.5856 11.7667 26.5857 14.8786C26.5856 17.9627 25.354 20.936 23.1733 23.1167Z" fill="white"/>
<path d="M22.1571 18.1055L19.2751 17.278C18.8962 17.1692 18.4881 17.2767 18.212 17.558L17.5073 18.276C17.2101 18.5788 16.7592 18.6761 16.3658 18.517C15.0025 17.9652 12.1346 15.4153 11.4022 14.1399C11.1909 13.772 11.2259 13.312 11.4853 12.9763L12.1006 12.1803C12.3417 11.8684 12.3926 11.4495 12.2331 11.089L11.0206 8.3466C10.7302 7.68975 9.89081 7.49855 9.34245 7.96232C8.53809 8.64263 7.58371 9.67643 7.46769 10.8217C7.26314 12.841 8.12913 15.3864 11.4039 18.4429C15.1871 21.9739 18.2167 22.4404 20.1893 21.9626C21.3081 21.6916 22.2022 20.6052 22.7665 19.7157C23.1512 19.1092 22.8474 18.3037 22.1571 18.1055Z" fill="white"/>
</svg>
